<svg width="128" height="128" viewBox="0 0 128 128" fill="none" xmlns="http://www.w3.org/2000/svg">
<path fill-rule="evenodd" clip-rule="evenodd" d="M91.4795 50.5135C86.9095 38.7536 86.9095 22.2898 86.9095 22.2898H63.7734H40.6374C40.6374 22.2898 40.6374 38.7536 36.0673 50.5135C32.2863 60.2447 23.7744 91.0564 58.772 93.7145V117.351L40.0948 124.745H58.772H69.0846H87.4504L69.0846 117.351V93.6872C103.718 90.8716 95.2485 60.2156 91.4795 50.5135Z" fill="#EF5DA8"/>
<path fill-rule="evenodd" clip-rule="evenodd" d="M63.7726 32.5529H87.5436C86.9155 26.6893 86.9103 22.2898 86.9103 22.2898H63.7726H40.6365C40.6365 22.2898 40.6296 26.6893 40.0015 32.5529H63.7726Z" fill="#FEFEFE"/>
<path fill-rule="evenodd" clip-rule="evenodd" d="M69.0845 117.351V93.6877L58.772 93.715V117.351L40.0947 124.746H58.772H69.0845H87.4502L69.0845 117.351Z" fill="#FEFEFE"/>
<path opacity="0.3" fill-rule="evenodd" clip-rule="evenodd" d="M67.0486 92.3011H77.3184C102.235 85.5753 94.9122 59.353 91.4787 50.513C86.9104 38.7531 86.9104 22.2893 86.9104 22.2893H76.6406C76.6406 22.2893 76.6406 38.7531 81.2089 50.513C84.6425 59.353 91.9648 85.5753 67.0486 92.3011Z" fill="#88441E"/>
<path fill-rule="evenodd" clip-rule="evenodd" d="M53.5446 122.18H74.2073L68.1259 119.731C67.1537 119.341 66.517 118.398 66.517 117.352V93.6881C66.517 92.3522 67.544 91.2387 68.8756 91.1309C78.9451 90.3116 85.8909 86.9589 89.523 81.1671C95.8868 71.0134 90.7982 55.8479 89.0865 51.4433C85.439 42.0542 84.5952 30.0514 84.4001 24.8566H43.1464C42.953 30.0514 42.1075 42.0542 38.46 51.4433C36.7449 55.8598 31.6443 71.0544 38.0475 81.2098C41.7206 87.0342 48.7589 90.38 58.9653 91.1548C60.3038 91.2575 61.3393 92.3727 61.3393 93.7138V117.352C61.3393 118.404 60.6958 119.349 59.7167 119.736L53.5446 122.18ZM87.4519 127.312H40.0963C38.8639 127.312 37.8044 126.436 37.5734 125.227C37.3423 124.017 38.0047 122.815 39.1498 122.36L56.2044 115.607V96.0452C45.5427 94.7914 37.979 90.7272 33.7034 83.945C26.2321 72.0962 31.1924 55.9693 33.6743 49.5856C38.0115 38.4227 38.0697 22.4481 38.0697 22.2908C38.0697 20.8727 39.22 19.725 40.6372 19.725H86.9093C88.3266 19.725 89.4768 20.8727 89.4768 22.2908C89.4768 22.4481 89.535 38.4227 93.8739 49.5856C96.3473 55.9522 101.299 72.0448 93.8739 83.8919C89.6462 90.6383 82.1767 94.7059 71.6519 96.0042V115.619L88.4104 122.365C89.5504 122.825 90.2059 124.028 89.9714 125.234C89.7387 126.44 88.6809 127.312 87.4519 127.312Z" fill="#2E2E30"/>
<path fill-rule="evenodd" clip-rule="evenodd" d="M79.8557 14.4806C79.522 14.4806 79.1985 14.5268 78.8801 14.5798C78.8801 14.5456 78.8852 14.5148 78.8852 14.4806C78.8852 10.7243 75.8368 7.67951 72.0798 7.67951C71.7666 7.67951 71.4619 7.70859 71.1607 7.74794C69.829 5.09491 67.0887 3.26807 63.9153 3.26807C60.742 3.26807 58.0017 5.09491 56.67 7.74794C56.3688 7.70859 56.0641 7.67951 55.7526 7.67951C51.9938 7.67951 48.9454 10.7243 48.9454 14.4806C48.9454 14.5148 48.9506 14.5456 48.9506 14.5798C48.6322 14.5268 48.3087 14.4806 47.9749 14.4806C44.5397 14.4806 41.7532 17.2636 41.7532 20.6966C41.7532 21.3466 41.8661 21.9658 42.051 22.5525H48.7298V32.4907C48.7298 34.4168 50.2942 35.9768 52.2198 35.9768C54.1454 35.9768 55.7081 34.4168 55.7081 32.4907V22.5525H85.7745C85.9577 21.9641 86.0775 21.3466 86.0775 20.6966C86.0775 17.2636 83.2927 14.4806 79.8557 14.4806Z" fill="#FEFEFE"/>
<path fill-rule="evenodd" clip-rule="evenodd" d="M44.3913 19.9864H48.7303C50.1475 19.9864 51.2978 21.1359 51.2978 22.5522V32.492C51.2978 32.9983 51.7103 33.4123 52.2186 33.4123C52.727 33.4123 53.1395 32.9983 53.1395 32.492V22.5522C53.1395 21.1359 54.2897 19.9864 55.7069 19.9864H83.4387C83.1084 18.3118 81.6278 17.046 79.8563 17.046C79.6611 17.046 79.4763 17.0819 79.2914 17.111C78.5503 17.2273 77.7886 17.022 77.2169 16.5328C76.6435 16.0453 76.3115 15.3303 76.3115 14.5794C76.3115 14.5144 76.3166 14.3981 76.3218 14.3331C76.3166 12.1453 74.4167 10.2466 72.0803 10.2466C71.8835 10.2466 71.6901 10.2655 71.5001 10.2928C70.4218 10.4314 69.3571 9.87888 68.8659 8.90046C67.916 7.00861 66.0212 5.83519 63.9159 5.83519C61.8123 5.83519 59.9141 7.00861 58.9658 8.90046C58.4746 9.87888 57.4066 10.4382 56.3317 10.2928C56.1417 10.2655 55.9482 10.2466 55.7531 10.2466C53.415 10.2466 51.5134 12.1453 51.5134 14.4802C51.5134 15.2328 51.1865 15.9974 50.6131 16.4832C50.038 16.9724 49.2815 17.2341 48.5403 17.111C48.3538 17.0819 48.1689 17.046 47.9755 17.046C46.204 17.046 44.7217 18.3118 44.3913 19.9864ZM52.2186 38.5439C48.8792 38.5439 46.1629 35.8293 46.1629 32.492V25.118H42.0515C40.9321 25.118 39.9394 24.3927 39.6022 23.3253C39.3266 22.4512 39.1863 21.5669 39.1863 20.6962C39.1863 16.2762 42.4709 12.6089 46.7294 12.0034C47.7941 8.16151 51.1899 5.33743 55.2653 5.12532C57.2542 2.36282 60.4361 0.703613 63.9159 0.703613C67.3939 0.703613 70.5775 2.36111 72.5647 5.12532C76.6624 5.33743 80.0719 8.18888 81.1194 12.0051C85.3694 12.6191 88.6438 16.2831 88.6438 20.6962C88.6438 21.5583 88.5068 22.4153 88.2244 23.3168C87.8906 24.3876 86.8979 25.118 85.7751 25.118H58.2744V32.492C58.2744 35.8293 55.558 38.5439 52.2186 38.5439Z" fill="#2E2E30"/>
</svg>
