<svg width="172" height="168" viewBox="0 0 172 168" fill="none" xmlns="http://www.w3.org/2000/svg">
<g clip-path="url(#clip0_277_140)">
<path fill-rule="evenodd" clip-rule="evenodd" d="M14.2768 106.791C-2.36115 81.3204 1.73545 36.094 40.0834 30.686C78.4314 25.278 88.8408 66.52 120.668 58.8742C152.494 51.2285 172.851 65.9972 175.314 85.1192C177.777 104.241 172.851 126.791 142.725 127.882C112.6 128.974 106.568 121.751 88.909 123.709C71.2501 125.667 30.9148 132.262 14.2768 106.791Z" fill="#FBFBFB"/>
<path opacity="0.5" d="M54.837 66.2113L55.3975 67.7823C55.4215 67.8496 55.469 67.9028 55.529 67.9298L56.9292 68.5587C57.127 68.6475 57.127 68.9617 56.9292 69.0505L55.529 69.6794C55.469 69.7063 55.4215 69.7596 55.3975 69.8269L54.837 71.3979C54.7578 71.6198 54.4778 71.6198 54.3986 71.3979L53.8381 69.8269C53.8141 69.7596 53.7666 69.7063 53.7067 69.6794L52.3064 69.0505C52.1086 68.9617 52.1086 68.6475 52.3064 68.5587L53.7067 67.9298C53.7666 67.9029 53.8141 67.8496 53.8381 67.7823L54.3986 66.2113C54.4778 65.9893 54.7578 65.9893 54.837 66.2113ZM68.6862 48.7844L68.9182 49.4123C68.9282 49.4392 68.9478 49.4605 68.9727 49.4712L69.5524 49.7226C69.6343 49.7581 69.6343 49.8836 69.5524 49.9191L68.9727 50.1705C68.9478 50.1812 68.9282 50.2025 68.9182 50.2294L68.6862 50.8573C68.6534 50.946 68.5374 50.946 68.5047 50.8573L68.2726 50.2294C68.2627 50.2025 68.243 50.1812 68.2182 50.1705L67.6385 49.9191C67.5566 49.8836 67.5566 49.7581 67.6385 49.7226L68.2182 49.4712C68.243 49.4605 68.2627 49.4392 68.2726 49.4123L68.5047 48.7844C68.5374 48.6957 68.6534 48.6957 68.6862 48.7844ZM71.309 127.444L71.541 128.072C71.5509 128.099 71.5706 128.12 71.5954 128.131L72.1751 128.382C72.257 128.418 72.257 128.543 72.1751 128.579L71.5954 128.83C71.5706 128.841 71.5509 128.862 71.541 128.889L71.309 129.517C71.2762 129.605 71.1602 129.605 71.1274 129.517L70.8954 128.889C70.8854 128.862 70.8658 128.841 70.841 128.83L70.2612 128.579C70.1794 128.543 70.1794 128.418 70.2612 128.382L70.841 128.131C70.8658 128.12 70.8854 128.099 70.8954 128.072L71.1274 127.444C71.1602 127.355 71.2762 127.355 71.309 127.444Z" fill="#D2D1D6"/>
<path fill-rule="evenodd" clip-rule="evenodd" d="M101.434 51.792C109.087 55.0411 116.434 53.5834 117.843 48.5362C119.253 43.489 114.191 36.7635 106.538 33.5144C98.8854 30.2653 91.5388 31.7229 90.1293 36.7701C88.7199 41.8174 93.7812 48.5429 101.434 51.792Z" fill="#FBFBFB"/>
<path d="M137.032 117.424L131.787 104.496C130.358 100.974 127.952 97.9335 124.853 95.7329C121.746 93.5275 118.101 92.2031 114.303 91.8998L92.4587 90.1556L70.6587 91.9067C66.943 92.2051 63.3833 93.5298 60.3768 95.7329C57.372 97.9347 55.0492 100.939 53.675 104.401L48.5049 117.424" fill="#EF5DA8"/>
<path d="M92.4587 90.1556L103.846 91.0652C102.001 98.1845 97.617 101.744 90.6949 101.744C83.8672 101.744 79.483 98.2808 77.5425 91.3539L92.4587 90.1556Z" fill="#FFA798"/>
<path d="M103.846 91.0652C102.001 98.1845 97.617 101.744 90.6949 101.744C83.8672 101.744 79.483 98.2807 77.5425 91.3539" stroke="#ECC4D7" stroke-width="4"/>
<path fill-rule="evenodd" clip-rule="evenodd" d="M81.5153 77.6042H99.8747V90.1898C99.8747 95.258 95.7648 99.3667 90.695 99.3667C85.6252 99.3667 81.5153 95.258 81.5153 90.1898V77.6042Z" fill="#FFA798"/>
<path fill-rule="evenodd" clip-rule="evenodd" d="M75.3733 68.662C73.4718 63.7943 73.4718 59.5494 75.3733 55.9273C73.3295 52.028 73.5985 48.7611 76.1803 46.1266C80.0529 42.1748 94.3668 37.5126 103.118 46.0167C107.608 46.7547 108.768 49.6878 106.598 54.8161C108.627 59.9966 108.423 64.6119 105.988 68.662L96.8548 76.6395L75.3733 68.662Z" fill="#041046"/>
<path d="M75.3734 55.9272C73.5124 59.5786 73.1848 62.8822 74.3906 65.838" stroke="#041046" stroke-linecap="round"/>
<path fill-rule="evenodd" clip-rule="evenodd" d="M99.8747 77.6042V82.6716C95.7751 89.3688 89.6653 92.1237 81.5453 90.9362C81.5254 90.6898 81.5153 90.441 81.5153 90.1898V77.6042H99.8747Z" fill="#E38676"/>
<path fill-rule="evenodd" clip-rule="evenodd" d="M107.86 63.7928C106.119 63.4365 105.105 64.972 104.817 68.3993L104.146 63.1679C101.816 61.7762 101.255 58.0954 102.461 52.1256C94.4091 57.4379 86.6224 59.1113 79.101 57.1459C79.6309 59.9289 79.0143 61.9363 77.2513 63.1679V68.3993C76.332 65.691 75.2277 64.3369 73.9384 64.3369C72.0045 64.3369 70.7943 68.8716 76.7161 71.5899C78.4272 81.1381 82.8835 86.1192 90.0849 86.533C97.2863 86.9468 102.323 81.9658 105.194 71.5899C106.716 70.8237 107.859 69.7602 108.621 68.3993C109.765 66.358 109.055 64.0372 107.86 63.7928Z" fill="#FFA798"/>
<path d="M102.461 52.1256C94.1961 57.7193 86.5492 59.5054 79.5205 57.4839M102.461 52.1256C100.466 58.3891 101.154 62.2264 104.523 63.6376L102.461 52.1256Z" stroke="#041046" stroke-linecap="round"/>
<path fill-rule="evenodd" clip-rule="evenodd" d="M88.5234 71.4337C89.9551 72.0847 91.4413 72.0847 92.9822 71.4337C92.4968 72.6573 91.7537 73.2691 90.7528 73.2691C89.7519 73.2691 89.0088 72.6573 88.5234 71.4337Z" fill="#E38676"/>
<path d="M85.4706 77.6042C88.733 75.7735 92.268 75.7735 96.0755 77.6042" stroke="#C87162" stroke-width="4" stroke-linecap="round"/>
<path d="M96.5962 66.854C97.1032 66.854 97.5142 66.2671 97.5142 65.543C97.5142 64.819 97.1032 64.2321 96.5962 64.2321C96.0892 64.2321 95.6782 64.819 95.6782 65.543C95.6782 66.2671 96.0892 66.854 96.5962 66.854Z" fill="#041046"/>
<path d="M85.0559 66.854C85.5629 66.854 85.9739 66.2671 85.9739 65.543C85.9739 64.819 85.5629 64.2321 85.0559 64.2321C84.5489 64.2321 84.1379 64.819 84.1379 65.543C84.1379 66.2671 84.5489 66.854 85.0559 66.854Z" fill="#041046"/>
<path fill-rule="evenodd" clip-rule="evenodd" d="M85.2028 71.1304C85.4925 71.1304 85.7273 70.8956 85.7273 70.606C85.7273 70.4129 85.5525 69.8011 85.2028 68.7706C84.8531 69.8011 84.6782 70.4129 84.6782 70.606C84.6782 70.8956 84.9131 71.1304 85.2028 71.1304ZM96.4807 71.1304C96.7705 71.1304 97.0053 70.8956 97.0053 70.606C97.0053 70.4129 96.8305 69.8011 96.4807 68.7706C96.131 69.8011 95.9562 70.4129 95.9562 70.606C95.9562 70.8956 96.191 71.1304 96.4807 71.1304Z" fill="white"/>
<path d="M94.4451 60.8551C95.8691 62.706 98.0164 63.5259 100.887 63.3147" stroke="#041046" stroke-width="5" stroke-linecap="round"/>
<path d="M88.5599 60.8551C87.1359 62.706 84.9886 63.5259 82.118 63.3147" stroke="#041046" stroke-width="5" stroke-linecap="round"/>
<path d="M106.491 65.543C105.629 68.1669 105.629 69.5443 106.491 69.6754" stroke="#CE7768" stroke-width="2" stroke-linecap="round"/>
<path d="M105.845 68.6049L107.562 67.2645" stroke="#CE7768" stroke-width="2" stroke-linecap="round"/>
<path d="M75.2674 66.1539C76.9313 69.2613 77.0772 70.6099 75.7051 70.1997" stroke="#CE7768" stroke-width="2" stroke-linecap="round"/>
<path d="M76.6135 69.1292L74.8959 67.7891" stroke="#CE7768" stroke-width="2" stroke-linecap="round"/>
<path d="M88.2612 77.8664C90.3106 77.6166 91.7968 77.6166 92.72 77.8664" stroke="#C87162" stroke-linecap="round"/>
<path fill-rule="evenodd" clip-rule="evenodd" d="M61.5055 97.4647C58.9748 98.4977 56.8133 99.3653 55.021 100.068C52.3325 101.121 49.7246 103.971 45.6008 102.012L40.5148 104.271L36.3267 92.2207C38.7374 91.8999 40.9878 91.0737 43.078 89.7422L54.9361 85.262L58.0337 86.873L61.5055 97.4647Z" fill="#FFA798"/>
<path fill-rule="evenodd" clip-rule="evenodd" d="M44.1366 102.662L40.5146 104.271L36.3266 92.2202C37.5287 92.0602 38.6909 91.7746 39.8133 91.3633C42.5219 95.2512 43.963 99.0173 44.1366 102.662Z" fill="#CE7768"/>
<path fill-rule="evenodd" clip-rule="evenodd" d="M24.9763 95.1626L37.9957 90.4672C40.9259 94.1952 42.6532 98.9407 43.1777 104.704L30.7454 109.228" fill="#ECC4D7"/>
<path fill-rule="evenodd" clip-rule="evenodd" d="M37.5869 98.1288C38.4548 100.513 39.1774 103.119 39.7547 105.948L39.0054 106.221C38.4039 103.305 37.683 100.692 36.8426 98.3844C35.979 96.0125 34.9594 93.8796 33.7837 91.9857L34.5352 91.7144C35.6784 93.5427 36.6956 95.6809 37.5869 98.1288Z" fill="white"/>
<path fill-rule="evenodd" clip-rule="evenodd" d="M50.7902 86.0613C54.7283 84.763 57.0485 84.1757 57.7509 84.2995C58.8044 84.4851 60.0143 85.0903 59.2437 87.5512C60.8308 88.2132 61.2816 89.3959 60.5961 91.099C62.1459 92.0893 62.4836 93.407 61.6093 95.0519C62.3171 95.5743 62.5185 96.2419 62.2136 97.0547C61.7562 98.2739 57.8159 99.5288 56.8661 99.099C55.9163 98.6692 55.3558 96.7957 57.7133 96.1067" fill="#FFA798"/>
<path d="M50.3284 90.8294C52.2416 92.9442 52.8967 95.7102 52.2939 99.1274M50.7902 86.0613C54.7283 84.763 57.0485 84.1757 57.7509 84.2995C58.8044 84.4851 60.0143 85.0903 59.2437 87.5512C60.8308 88.2132 61.2816 89.3959 60.5961 91.099C62.1458 92.0893 62.4836 93.4069 61.6093 95.0518C62.3171 95.5742 62.5185 96.2418 62.2136 97.0547C61.7562 98.2739 57.8159 99.5288 56.8661 99.099C55.9162 98.6692 55.3558 96.7957 57.7133 96.1067L50.7902 86.0613Z" stroke="#CE7768" stroke-width="2" stroke-linecap="round"/>
<path d="M60.0366 91.5192L54.0609 93.3586C53.127 93.6461 52.1369 93.1222 51.8494 92.1886C51.8379 92.151 51.8275 92.113 51.8185 92.0748C51.5742 91.0407 52.1769 89.995 53.1944 89.6876L58.0232 88.2289" stroke="#CE7768" stroke-width="2" stroke-linecap="round"/>
<path d="M60.9942 95.1493L56.0994 96.6129C55.1556 96.8951 54.1617 96.359 53.8796 95.4154C53.8696 95.382 53.8606 95.3484 53.8526 95.3145C53.609 94.2834 54.2165 93.2423 55.2342 92.9468L58.9808 91.859" stroke="#CE7768" stroke-width="2" stroke-linecap="round"/>
<path fill-rule="evenodd" clip-rule="evenodd" d="M40.2341 91.1495C42.2139 90.5415 43.9641 89.3389 45.4847 87.5417C47.7657 84.8458 49.4997 83.9803 50.9246 85.2059C52.3495 86.4315 52.9447 89.1267 55.3902 90.7849C57.8357 92.4431 53.8765 93.698 51.8022 92.0888L50.3282 90.8291C50.154 93.8914 48.9735 95.9782 46.7866 97.0894" fill="#FFA798"/>
<path d="M40.2341 91.1495C42.2139 90.5415 43.9641 89.3389 45.4847 87.5417C47.7657 84.8458 49.4997 83.9803 50.9246 85.2059C52.3495 86.4315 53.203 89.1722 55.6485 90.8304C58.094 92.4886 54.1348 93.7435 52.0605 92.1343L50.3282 90.8291C50.154 93.8914 48.9735 95.9782 46.7866 97.0894" stroke="#CE7768" stroke-width="2" stroke-linecap="round"/>
<path d="M54.0235 89.3224C53.4469 89.5938 53.2789 89.9163 53.5195 90.2899C53.7602 90.6635 54.3332 91.0157 55.2386 91.3465" stroke="#CE7768" stroke-width="2" stroke-linecap="round"/>
<path opacity="0.5" d="M128.275 66.2114L128.836 67.7824C128.86 67.8497 128.907 67.903 128.967 67.9299L130.367 68.5588C130.565 68.6476 130.565 68.9618 130.367 69.0506L128.967 69.6795C128.907 69.7064 128.86 69.7597 128.836 69.827L128.275 71.398C128.196 71.62 127.916 71.62 127.837 71.398L127.276 69.827C127.252 69.7597 127.205 69.7064 127.145 69.6795L125.744 69.0506C125.547 68.9618 125.547 68.6476 125.744 68.5588L127.145 67.9299C127.205 67.903 127.252 67.8497 127.276 67.7824L127.837 66.2114C127.916 65.9894 128.196 65.9894 128.275 66.2114ZM121.553 123.95L122.299 126.04C122.331 126.129 122.394 126.2 122.474 126.236L124.336 127.072C124.599 127.19 124.599 127.608 124.336 127.726L122.474 128.563C122.394 128.599 122.331 128.67 122.299 128.759L121.553 130.849C121.448 131.144 121.075 131.144 120.97 130.849L120.225 128.759C120.193 128.67 120.129 128.599 120.05 128.563L118.187 127.726C117.924 127.608 117.924 127.19 118.187 127.072L120.05 126.236C120.129 126.2 120.193 126.129 120.225 126.04L120.97 123.95C121.075 123.655 121.448 123.655 121.553 123.95Z" fill="#D2D1D6"/>
<path opacity="0.5" d="M155.548 66.1967C157.576 66.1967 159.219 64.5532 159.219 62.5259C159.219 60.4986 157.576 58.8551 155.548 58.8551C153.52 58.8551 151.876 60.4986 151.876 62.5259C151.876 64.5532 153.52 66.1967 155.548 66.1967Z" fill="#D2D1D6"/>
<path opacity="0.2" d="M37.5225 126.502C39.5504 126.502 41.1944 124.859 41.1944 122.831C41.1944 120.804 39.5504 119.161 37.5225 119.161C35.4945 119.161 33.8506 120.804 33.8506 122.831C33.8506 124.859 35.4945 126.502 37.5225 126.502Z" fill="#D2D1D6"/>
<path d="M86.6183 29.7006L86.1694 36.1373" stroke="#E9EAEC" stroke-width="6" stroke-linecap="round"/>
<path d="M80.9491 38.3354L75.1277 28.4619" stroke="#E9EAEC" stroke-width="6" stroke-linecap="round"/>
<path d="M75.7988 41.7533L68.5974 36.4712" stroke="#E9EAEC" stroke-width="6" stroke-linecap="round"/>
<path opacity="0.5" d="M20.3139 77.0165L21.0594 79.1061C21.0913 79.1956 21.1545 79.2664 21.2342 79.3023L23.0967 80.1387C23.3598 80.2569 23.3598 80.6748 23.0967 80.7929L21.2342 81.6293C21.1545 81.6651 21.0913 81.7361 21.0594 81.8255L20.3139 83.9151C20.2085 84.2104 19.8361 84.2104 19.7307 83.9151L18.9852 81.8255C18.9533 81.7361 18.8901 81.6652 18.8104 81.6293L16.9479 80.7929C16.6848 80.6748 16.6848 80.2569 16.9479 80.1387L18.8104 79.3023C18.8901 79.2665 18.9533 79.1956 18.9852 79.1061L19.7307 77.0165C19.8361 76.7212 20.2085 76.7212 20.3139 77.0165Z" fill="#D2D1D6"/>
<path fill-rule="evenodd" clip-rule="evenodd" d="M120.165 95.4208C122.618 96.6277 124.713 97.6439 126.452 98.4694C129.061 99.7078 131.463 102.733 135.714 101.066L140.63 103.674L145.649 91.9452C143.266 91.4571 141.079 90.476 139.087 89.0021L127.57 83.7061L124.368 85.0972L120.165 95.4208Z" fill="#FFA798"/>
<path fill-rule="evenodd" clip-rule="evenodd" d="M137.129 101.816L140.63 103.674L145.649 91.9448C144.461 91.7014 143.321 91.3355 142.23 90.847C139.257 94.5364 137.557 98.1929 137.129 101.816Z" fill="#CE7768"/>
<path fill-rule="evenodd" clip-rule="evenodd" d="M156.766 95.6711L144.106 90.0796C140.923 93.5943 138.869 98.2078 137.943 103.92L150.029 109.3" fill="#D2D1D6"/>
<path fill-rule="evenodd" clip-rule="evenodd" d="M143.979 97.7511C142.947 100.069 142.044 102.618 141.271 105.401L141.999 105.725C142.803 102.857 143.705 100.302 144.704 98.058C145.731 95.752 146.897 93.6954 148.202 91.8882L147.471 91.5651C146.203 93.3093 145.039 95.3713 143.979 97.7511Z" fill="white"/>
<path fill-rule="evenodd" clip-rule="evenodd" d="M131.65 84.7923C127.812 83.2225 125.539 82.4749 124.829 82.5494C123.765 82.6612 122.516 83.1805 123.113 85.6891C121.484 86.2389 120.951 87.3872 121.516 89.1339C119.901 90.0138 119.472 91.3046 120.23 93.0064C119.487 93.4782 119.24 94.1301 119.487 94.9622C119.858 96.2103 123.702 97.7369 124.679 97.3744C125.657 97.0118 126.346 95.182 124.043 94.3304" fill="#FFA798"/>
<path d="M131.778 89.5809C129.722 91.5571 128.875 94.2707 129.238 97.7215M131.65 84.7923C127.812 83.2225 125.539 82.4749 124.829 82.5494C123.765 82.6612 122.516 83.1805 123.113 85.6891C121.484 86.2389 120.951 87.3872 121.516 89.1339C119.901 90.0138 119.472 91.3046 120.23 93.0064C119.487 93.4782 119.24 94.1301 119.487 94.9622C119.858 96.2103 123.702 97.7369 124.679 97.3744C125.657 97.0118 126.346 95.182 124.043 94.3304L131.65 84.7923Z" stroke="#CE7768" stroke-width="2" stroke-linecap="round"/>
<path d="M122.045 89.5922L127.878 91.8437C128.79 92.1956 129.814 91.742 130.166 90.8307C130.18 90.794 130.193 90.7569 130.205 90.7193C130.521 89.7048 129.992 88.6196 128.999 88.2421L124.284 86.4504" stroke="#CE7768" stroke-width="2" stroke-linecap="round"/>
<path d="M120.837 93.1465L125.618 94.9478C126.539 95.2951 127.568 94.8296 127.916 93.908C127.928 93.8754 127.939 93.8425 127.95 93.8092C128.264 92.7977 127.731 91.7168 126.737 91.3511L123.075 90.0047" stroke="#CE7768" stroke-width="2" stroke-linecap="round"/>
<path fill-rule="evenodd" clip-rule="evenodd" d="M141.826 90.604C139.893 89.8595 138.231 88.5378 136.84 86.639C134.752 83.7907 133.083 82.8064 131.576 83.9297C130.069 85.0529 129.287 87.7 126.732 89.1836C124.176 90.6672 128.038 92.1951 130.22 90.7344L131.778 89.5807C131.738 92.6476 132.77 94.8115 134.874 96.0725" fill="#FFA798"/>
<path d="M141.826 90.604C139.893 89.8595 138.231 88.5379 136.84 86.639C134.752 83.7907 133.083 82.8064 131.576 83.9297C130.069 85.0529 129.026 87.7274 126.471 89.211C123.916 90.6946 127.778 92.2225 129.959 90.7619L131.778 89.5807C131.738 92.6476 132.77 94.8115 134.874 96.0725" stroke="#CE7768" stroke-width="2" stroke-linecap="round"/>
<path d="M128.197 87.8198C128.753 88.1307 128.898 88.4642 128.632 88.8201C128.366 89.1761 127.77 89.4874 126.844 89.7542" stroke="#CE7768" stroke-width="2" stroke-linecap="round"/>
<path fill-rule="evenodd" clip-rule="evenodd" d="M87.1007 143.044C86.8094 139.643 86.2265 137.274 85.3521 135.937C84.0404 133.932 81.4113 126.761 86.2264 127.112L87.4807 110.519C87.5367 109.777 88.155 109.204 88.8989 109.204C89.6413 109.204 90.257 109.779 90.3076 110.52L91.0932 122.006C93.0364 121.213 94.4062 121.369 95.2026 122.473C96.6084 121.971 97.9244 122.271 99.1504 123.373C101.107 123.289 102.085 124.206 102.085 126.124C102.085 129.001 100.083 135.655 99.7439 137.541C99.5178 138.798 99.5178 140.632 99.7439 143.044H87.1007Z" fill="#FFA798"/>
<path fill-rule="evenodd" clip-rule="evenodd" d="M99.6306 141.589L99.6311 141.597C99.6587 142.054 99.6963 142.536 99.7439 143.044H87.1007C87.0468 142.479 86.983 141.945 86.9092 141.439C91.2221 140.466 95.4626 140.516 99.6306 141.589Z" fill="#CE7768"/>
<path fill-rule="evenodd" clip-rule="evenodd" d="M85.7316 157.006L85.7719 143.169C90.2784 141.691 95.3297 141.691 100.926 143.169V156.396" fill="#041046"/>
<path fill-rule="evenodd" clip-rule="evenodd" d="M92.8339 146.174C95.3715 146.174 98.0688 146.387 100.926 146.812V147.609C97.9785 147.177 95.2765 146.961 92.8196 146.961C90.2947 146.961 87.9411 147.189 85.7588 147.646L85.7608 146.847C87.8703 146.398 90.228 146.174 92.8339 146.174Z" fill="white"/>
<path d="M86.2265 127.112L85.9631 131.328" stroke="#CE7768" stroke-width="2" stroke-linecap="round"/>
<path d="M91.0736 121.68L91.2334 124.227" stroke="#CE7768" stroke-width="2" stroke-linecap="round"/>
<path d="M95.2026 122.473V123.646" stroke="#CE7768" stroke-width="2" stroke-linecap="round"/>
<path d="M99.1505 123.373V124.227" stroke="#CE7768" stroke-width="2" stroke-linecap="round"/>
<path d="M89.35 112.247H88.0614C87.9017 110.675 88.1872 109.889 88.9181 109.889" stroke="#CE7768" stroke-width="2" stroke-linecap="round"/>
<path fill-rule="evenodd" clip-rule="evenodd" d="M143.276 39.1684C140.582 41.265 138.912 43.0439 138.267 44.5052C137.299 46.6972 132.716 52.8071 130.388 48.5782L115.785 56.5639C115.132 56.9208 114.315 56.7145 113.91 56.0908C113.505 55.4682 113.652 54.639 114.246 54.1932L123.454 47.2786C121.73 46.0809 121.115 44.8476 121.607 43.5787C120.42 42.6732 119.955 41.4063 120.212 39.7781C119.076 38.1835 119.313 36.8639 120.921 35.8195C123.334 34.2529 130.007 32.3069 131.774 31.5644C132.951 31.0694 134.49 30.0703 136.39 28.5672L143.276 39.1684Z" fill="#FFA798"/>
<path fill-rule="evenodd" clip-rule="evenodd" d="M135.233 29.4551L135.239 29.4503C135.607 29.1786 135.991 28.8845 136.391 28.5681L143.277 39.1685C142.833 39.5209 142.419 39.8657 142.035 40.203C138.87 37.117 136.602 33.5343 135.233 29.4551Z" fill="#CE7768"/>
<path fill-rule="evenodd" clip-rule="evenodd" d="M155.736 32.7125L144.107 40.2142C140.412 37.2406 137.661 33.0053 135.853 27.5083L146.948 20.305" fill="#BA68C8"/>
<path fill-rule="evenodd" clip-rule="evenodd" d="M142.781 32.6567C141.399 30.5291 140.108 28.1518 138.909 25.5249L139.578 25.0908C140.82 27.7973 142.11 30.1804 143.448 32.2403C144.824 34.3573 146.297 36.2062 147.869 37.7872L147.198 38.2205C145.672 36.6961 144.2 34.8415 142.781 32.6567Z" fill="white"/>
<path d="M130.388 48.5783L134.068 46.5032" stroke="#CE7768" stroke-width="2" stroke-linecap="round"/>
<path d="M123.19 47.473L125.24 45.952" stroke="#CE7768" stroke-width="2" stroke-linecap="round"/>
<path d="M121.607 43.5793L122.591 42.9404" stroke="#CE7768" stroke-width="2" stroke-linecap="round"/>
<path d="M120.212 39.7791L120.928 39.3142" stroke="#CE7768" stroke-width="2" stroke-linecap="round"/>
<path d="M116.216 54.0557L116.918 55.1361C115.686 56.1263 114.871 56.3149 114.473 55.702" stroke="#CE7768" stroke-width="2" stroke-linecap="round"/>
<path fill-rule="evenodd" clip-rule="evenodd" d="M37.0267 39.1684C39.7211 41.265 41.3909 43.0439 42.0361 44.5052C43.0039 46.6972 47.5874 52.8071 49.915 48.5782L64.5183 56.5639C65.1709 56.9208 65.9884 56.7145 66.3935 56.0908C66.7979 55.4682 66.6511 54.639 66.0574 54.1932L56.8495 47.2786C58.5728 46.0809 59.1884 44.8476 58.6962 43.5787C59.8828 42.6732 60.3477 41.4063 60.0911 39.7781C61.2269 38.1835 60.9905 36.8639 59.3817 35.8195C56.9687 34.2528 50.2961 32.3069 48.5295 31.5644C47.3518 31.0694 45.813 30.0703 43.913 28.5672L37.0267 39.1684Z" fill="#FFA798"/>
<path fill-rule="evenodd" clip-rule="evenodd" d="M45.0705 29.4551L45.0641 29.4503C44.6962 29.1786 44.3122 28.8845 43.9122 28.5681L37.0261 39.1685C37.4701 39.5209 37.884 39.8657 38.268 40.203C41.4335 37.117 43.7011 33.5343 45.0705 29.4551Z" fill="#CE7768"/>
<path d="M24.567 32.7125L36.1965 40.2142C39.8909 37.2406 42.6422 33.0053 44.4505 27.5083L33.3547 20.305" fill="#8183A8"/>
<path fill-rule="evenodd" clip-rule="evenodd" d="M37.5224 32.6567C38.9045 30.5291 40.1951 28.1518 41.3942 25.5249L40.7255 25.0908C39.4832 27.7973 38.1929 30.1804 36.8548 32.2403C35.4796 34.3573 34.0061 36.2062 32.4344 37.7872L33.1056 38.2205C34.6308 36.6961 36.1031 34.8415 37.5224 32.6567Z" fill="white"/>
<path d="M49.9153 48.5781L46.2355 46.5031" stroke="#CE7768" stroke-width="2" stroke-linecap="round"/>
<path d="M57.1127 47.473L55.0632 45.9521" stroke="#CE7768" stroke-width="2" stroke-linecap="round"/>
<path d="M58.6963 43.5793L57.7122 42.9404" stroke="#CE7768" stroke-width="2" stroke-linecap="round"/>
<path d="M60.0911 39.7791L59.3751 39.3142" stroke="#CE7768" stroke-width="2" stroke-linecap="round"/>
<path d="M64.0874 54.0557L63.3855 55.1361C64.6173 56.1263 65.4323 56.3149 65.8304 55.702" stroke="#CE7768" stroke-width="2" stroke-linecap="round"/>
</g>
<defs>
<clipPath id="clip0_277_140">
<rect width="172" height="168" fill="white"/>
</clipPath>
</defs>
</svg>
