<svg width="922" height="700" viewBox="0 0 922 700" fill="none" xmlns="http://www.w3.org/2000/svg">
<path d="M508.568 175.969C430.71 201.472 368.122 71.026 295.851 56.7532C214.344 40.6587 163.916 103.29 157.827 181.358C145.052 344.744 295.218 513.389 447.06 545.146C608.101 578.837 734.99 421.517 742.197 268.366C745.102 206.599 729.366 102.163 660.82 77.167C562.999 41.485 578.064 153.17 508.568 175.969Z" fill="#EF5DA8"/>
<path opacity="0.9" d="M508.568 175.969C430.71 201.472 368.122 71.026 295.851 56.7532C214.344 40.6587 163.916 103.29 157.827 181.358C145.052 344.744 295.218 513.389 447.06 545.146C608.101 578.837 734.99 421.517 742.197 268.366C745.102 206.599 729.366 102.163 660.82 77.167C562.999 41.485 578.064 153.17 508.568 175.969Z" fill="white"/>
<path d="M465.737 699.668C665.144 699.668 826.795 690.15 826.795 678.409C826.795 666.668 665.144 657.15 465.737 657.15C266.33 657.15 104.679 666.668 104.679 678.409C104.679 690.15 266.33 699.668 465.737 699.668Z" fill="#F5F5F5"/>
<path d="M605.866 295.372C604.47 306.339 602.943 317.363 601.322 328.331L596.462 361.684C595.71 365.737 594.103 369.58 591.751 372.952C589.601 375.977 587.008 378.656 584.06 380.896C578.867 384.714 573.093 387.657 566.965 389.61C561.338 391.47 555.563 392.84 549.703 393.704C546.816 394.155 543.949 394.455 541.062 394.699C538.176 394.943 535.383 395.094 532.31 395.094L531.36 384.502C536.37 383.337 541.677 381.985 546.649 380.314C551.576 378.772 556.392 376.889 561.062 374.68C565.31 372.767 569.257 370.236 572.775 367.168C574.149 365.91 575.324 364.447 576.258 362.83C576.938 361.551 577.35 360.144 577.468 358.698L578.008 350.792C578.194 347.975 578.455 345.158 578.697 342.378C579.181 336.782 579.734 331.204 580.354 325.645C581.565 314.49 582.999 303.428 584.73 292.329L605.866 295.372Z" fill="#E4897B"/>
<path d="M593.818 278.564C593.818 278.564 577.245 321.345 592.98 401.028H668.138C668.64 389.385 661.396 332.65 672.532 277.831C664.224 276.216 655.82 275.149 647.374 274.639C636.738 274.009 626.074 274.009 615.438 274.639C608.141 275.375 600.912 276.687 593.818 278.564V278.564Z" fill="#EF5DA8"/>
<path opacity="0.2" d="M593.818 278.564C593.818 278.564 577.245 321.345 592.98 401.028H668.138C668.64 389.385 661.396 332.65 672.532 277.831C664.224 276.216 655.82 275.149 647.374 274.639C636.738 274.009 626.074 274.009 615.438 274.639C608.141 275.375 600.912 276.687 593.818 278.564V278.564Z" fill="#E3C3E9"/>
<path d="M610.503 288.254C615.233 300.931 603.893 343.43 603.893 343.43L572.682 327.692C572.682 327.692 574.154 306.508 581.304 290.132C588.455 273.756 605.401 274.357 610.503 288.254Z" fill="#EF5DA8"/>
<path opacity="0.2" d="M610.503 288.254C615.233 300.931 603.893 343.43 603.893 343.43L572.682 327.692C572.682 327.692 574.154 306.508 581.304 290.132C588.455 273.756 605.401 274.357 610.503 288.254Z" fill="#E3C3E9"/>
<path d="M682.756 660.943H668.696L657.747 628.135H671.806L682.756 660.943Z" fill="#E4897B"/>
<path d="M566.109 628.135L568.027 645.056H582.086L580.15 628.135H566.109Z" fill="#CE6F64"/>
<path d="M671.806 628.135H657.747L663.408 645.056H677.448L671.806 628.135Z" fill="#CE6F64"/>
<path d="M619.646 401.028C619.646 401.028 591.714 479.904 600.485 520.488C610.056 564.902 656.797 641.769 656.797 641.769H682.532C682.532 641.769 648.1 568.527 642.626 524.525C636.685 476.787 668.138 436.522 668.138 401.028H619.646Z" fill="#EF5DA8"/>
<path opacity="0.7" d="M619.646 401.028C619.646 401.028 591.714 479.904 600.485 520.488C610.056 564.902 656.797 641.769 656.797 641.769H682.532C682.532 641.769 648.1 568.527 642.626 524.525C636.685 476.787 668.138 436.522 668.138 401.028H619.646Z" fill="#E3C3E9"/>
<path d="M583.874 660.943H569.833L566.09 628.135H580.15L583.874 660.943Z" fill="#E4897B"/>
<path d="M592.98 401.028C592.98 401.028 538.213 477.594 539.74 520.788C541.323 565.729 562.757 641.769 562.757 641.769H586.556C586.556 641.769 576.816 568.358 577.859 524.225C579.014 476.111 642.384 438.137 642.384 401.028H592.98Z" fill="#EF5DA8"/>
<path opacity="0.7" d="M592.98 401.028C592.98 401.028 538.213 477.594 539.74 520.788C541.323 565.729 562.757 641.769 562.757 641.769H586.556C586.556 641.769 576.816 568.358 577.859 524.225C579.014 476.111 642.384 438.137 642.384 401.028H592.98Z" fill="#E3C3E9"/>
<path d="M666.853 659.291H683.985C684.265 659.289 684.537 659.386 684.754 659.564C684.971 659.742 685.121 659.991 685.177 660.267L687.951 672.85C688.019 673.157 688.016 673.476 687.944 673.782C687.872 674.088 687.733 674.374 687.536 674.618C687.338 674.862 687.089 675.057 686.807 675.19C686.524 675.323 686.215 675.39 685.903 675.385C680.316 675.291 676.368 674.953 669.423 674.953C665.158 674.953 656.387 675.404 650.466 675.404C644.544 675.404 643.799 669.526 646.22 669C657.039 666.596 661.117 663.366 664.581 660.173C665.204 659.606 666.013 659.291 666.853 659.291V659.291Z" fill="#263238"/>
<path d="M570.019 659.291H585.364C585.645 659.292 585.918 659.389 586.137 659.566C586.357 659.744 586.511 659.991 586.574 660.267L589.349 672.85C589.416 673.156 589.414 673.473 589.343 673.777C589.272 674.082 589.134 674.367 588.939 674.61C588.744 674.854 588.497 675.05 588.217 675.184C587.936 675.318 587.629 675.387 587.319 675.385C581.732 675.291 573.781 674.953 566.835 674.953C558.697 674.953 551.677 675.404 542.142 675.404C536.37 675.404 534.694 669.526 537.189 669C548.176 666.559 557.152 666.314 566.649 660.399C567.648 659.721 568.815 659.337 570.019 659.291V659.291Z" fill="#263238"/>
<path d="M538.828 383.206L523.502 384.239L530.672 400.822C533.549 400.74 536.326 399.732 538.594 397.944C540.863 396.156 542.504 393.683 543.279 390.887L538.828 383.206Z" fill="#E4897B"/>
<path d="M515.215 389.478L523.726 401.084L530.672 400.822L523.502 384.239L515.215 389.478Z" fill="#E4897B"/>
<path opacity="0.2" d="M657.207 304.029C659.665 291.522 664.45 293.682 668.976 299.841C667.034 316.425 666.138 333.117 666.294 349.815C663.128 344.519 653.11 324.988 657.207 304.029Z" fill="#E3C3E9"/>
<path d="M644.209 238.356C642.197 248.722 640.186 267.709 647.374 274.639C647.374 274.639 644.562 285.137 625.456 285.137C604.47 285.137 615.438 274.639 615.438 274.639C626.89 271.878 626.611 263.371 624.6 255.239L644.209 238.356Z" fill="#E4897B"/>
<path d="M636.22 245.248L624.6 255.239C625.094 257.084 625.424 258.969 625.587 260.873C629.963 260.234 635.978 255.389 636.443 250.769C636.701 248.93 636.625 247.06 636.22 245.248V245.248Z" fill="#CE6F64"/>
<path d="M619.274 198.561C611.956 200.307 604.246 221.754 612.216 227.67C620.187 233.586 633.11 195.312 619.274 198.561Z" fill="#263238"/>
<path d="M647.188 226.111C643.11 239.558 641.397 247.633 632.886 252.985C620.112 261.042 604.954 250.751 604.954 236.346C604.954 223.369 611.639 203.575 626.183 201.34C629.381 200.844 632.653 201.18 635.687 202.316C638.721 203.451 641.418 205.349 643.521 207.83C645.625 210.31 647.066 213.291 647.707 216.491C648.349 219.69 648.17 223.001 647.188 226.111Z" fill="#E4897B"/>
<path d="M643.054 239.257C635.214 240.497 629.032 211.087 649.628 208.815C674.6 205.96 655.68 237.266 643.054 239.257Z" fill="#263238"/>
<path d="M652.998 215.801C643.147 215.989 614.339 210.036 610.615 193.922C609.088 187.312 620.429 178.673 631.862 179.969C616.76 186.654 628.622 197.34 644.637 195.932C662.942 194.298 666.294 215.557 652.998 215.801Z" fill="#263238"/>
<path d="M657.374 210.186C657.374 210.186 667.318 209.453 664.823 218.393C664.392 216.492 663.479 214.736 662.173 213.297C660.867 211.859 659.214 210.787 657.374 210.186V210.186Z" fill="#263238"/>
<path d="M654.711 209.866C654.711 209.866 663.259 215.069 664.991 205.923C663.753 207.41 662.159 208.553 660.36 209.243C658.561 209.933 656.616 210.148 654.711 209.866V209.866Z" fill="#263238"/>
<path d="M649.721 242.638C647.199 245.09 643.82 246.44 640.317 246.394C635.68 246.3 634.73 241.793 637.095 238.074C639.255 234.731 644.283 230.731 648.399 232.628C652.514 234.525 652.756 239.576 649.721 242.638Z" fill="#E4897B"/>
<path d="M652.235 642.332H685.884V633.205L648.268 632.623L652.235 642.332Z" fill="#EF5DA8"/>
<path d="M557.45 642.332H591.081V633.093L553.483 632.623L557.45 642.332Z" fill="#EF5DA8"/>
<path d="M625.756 224.966C625.495 226.074 624.694 226.844 623.893 226.656C623.092 226.468 622.812 225.435 623.073 224.327C623.334 223.219 624.135 222.449 624.936 222.637C625.737 222.825 626.017 223.858 625.756 224.966Z" fill="#263238"/>
<path d="M613.298 221.942C613.037 223.069 612.236 223.82 611.435 223.651C610.633 223.482 610.354 222.43 610.615 221.322C610.876 220.214 611.677 219.444 612.478 219.613C613.279 219.782 613.559 220.834 613.298 221.942Z" fill="#263238"/>
<path d="M617.133 223.482C615.005 226.56 612.467 229.328 609.591 231.708C610.214 232.433 610.987 233.012 611.856 233.404C612.724 233.797 613.667 233.993 614.619 233.98L617.133 223.482Z" fill="#DE5753"/>
<path d="M619.609 238.112C618.769 238.108 617.931 238.007 617.114 237.811C617.026 237.789 616.951 237.734 616.902 237.657C616.854 237.58 616.836 237.487 616.853 237.398C616.864 237.355 616.883 237.314 616.91 237.278C616.936 237.243 616.969 237.213 617.008 237.19C617.046 237.167 617.088 237.152 617.132 237.146C617.175 237.14 617.22 237.143 617.263 237.154C618.626 237.518 620.056 237.551 621.435 237.25C622.814 236.95 624.102 236.325 625.196 235.426C625.26 235.364 625.346 235.33 625.435 235.332C625.524 235.333 625.609 235.371 625.671 235.435C625.732 235.5 625.766 235.587 625.764 235.677C625.762 235.767 625.725 235.852 625.661 235.914C623.973 237.359 621.823 238.139 619.609 238.112V238.112Z" fill="#263238"/>
<path d="M630.615 221.848C630.487 221.842 630.364 221.8 630.259 221.727C630.153 221.654 630.07 221.553 630.019 221.435C629.696 220.643 629.189 219.942 628.541 219.389C627.893 218.837 627.122 218.45 626.294 218.261C626.208 218.248 626.126 218.217 626.052 218.17C625.978 218.124 625.913 218.063 625.863 217.991C625.813 217.919 625.777 217.838 625.758 217.752C625.74 217.666 625.738 217.578 625.754 217.491C625.782 217.314 625.878 217.156 626.021 217.05C626.164 216.945 626.343 216.901 626.518 216.928C627.547 217.166 628.503 217.65 629.307 218.34C630.111 219.03 630.738 219.904 631.136 220.89C631.173 220.972 631.194 221.06 631.198 221.149C631.201 221.239 631.187 221.328 631.155 221.412C631.124 221.496 631.077 221.572 631.016 221.638C630.955 221.703 630.882 221.755 630.801 221.792C630.742 221.819 630.679 221.838 630.615 221.848Z" fill="#263238"/>
<path d="M609.125 216.327C608.969 216.332 608.816 216.278 608.697 216.177C608.563 216.063 608.478 215.902 608.461 215.726C608.444 215.551 608.495 215.375 608.604 215.238C609.26 214.387 610.111 213.71 611.085 213.265C612.058 212.82 613.124 212.621 614.19 212.684C614.365 212.707 614.524 212.799 614.632 212.94C614.74 213.08 614.789 213.258 614.768 213.435C614.758 213.521 614.732 213.605 614.691 213.681C614.649 213.758 614.593 213.825 614.525 213.879C614.458 213.933 614.38 213.973 614.297 213.997C614.214 214.021 614.127 214.027 614.041 214.017C613.205 213.989 612.374 214.162 611.616 214.521C610.858 214.88 610.196 215.415 609.684 216.083C609.619 216.167 609.533 216.234 609.436 216.277C609.338 216.32 609.231 216.337 609.125 216.327Z" fill="#263238"/>
<path d="M662.179 661.77C661.2 661.857 660.222 661.605 659.404 661.056C659.152 660.839 658.958 660.562 658.838 660.251C658.717 659.94 658.675 659.604 658.715 659.272C658.714 659.079 658.765 658.889 658.864 658.723C658.962 658.558 659.104 658.423 659.274 658.333C660.819 657.525 665.363 660.324 665.884 660.662C665.939 660.697 665.982 660.748 666.009 660.808C666.035 660.868 666.044 660.935 666.033 661C666.02 661.064 665.988 661.124 665.942 661.171C665.896 661.217 665.837 661.249 665.773 661.263C664.598 661.568 663.392 661.739 662.179 661.77V661.77ZM660.093 658.84C659.944 658.828 659.795 658.861 659.665 658.934C659.595 658.967 659.536 659.021 659.497 659.088C659.457 659.154 659.438 659.232 659.441 659.31C659.41 659.536 659.437 659.767 659.518 659.98C659.599 660.194 659.733 660.383 659.907 660.53C661.468 661.262 663.25 661.356 664.879 660.793C663.423 659.837 661.798 659.174 660.093 658.84V658.84Z" fill="#EF5DA8"/>
<path d="M665.773 661.281C665.725 661.3 665.672 661.3 665.624 661.281C664.153 660.493 661.359 657.394 661.657 655.816C661.697 655.568 661.825 655.342 662.016 655.18C662.208 655.018 662.45 654.93 662.7 654.934C662.956 654.902 663.215 654.924 663.462 654.998C663.709 655.072 663.938 655.198 664.134 655.366C665.754 656.699 665.996 660.793 666.108 661C666.109 661.061 666.097 661.122 666.071 661.177C666.045 661.232 666.007 661.281 665.959 661.319C665.895 661.326 665.83 661.313 665.773 661.281V661.281ZM662.942 655.535H662.793C662.346 655.535 662.328 655.798 662.309 655.873C662.123 656.812 663.911 659.159 665.363 660.267C665.262 658.65 664.684 657.101 663.706 655.816C663.491 655.636 663.221 655.537 662.942 655.535V655.535Z" fill="#EF5DA8"/>
<path d="M564.098 661.77C562.892 661.88 561.684 661.576 560.671 660.906C560.445 660.704 560.271 660.45 560.164 660.165C560.057 659.881 560.02 659.574 560.057 659.272C560.067 659.089 560.122 658.911 560.216 658.754C560.31 658.597 560.441 658.465 560.597 658.37C562.31 657.413 567.952 660.248 568.604 660.643C568.662 660.676 568.709 660.726 568.739 660.786C568.769 660.846 568.78 660.914 568.772 660.981C568.765 661.05 568.735 661.115 568.688 661.166C568.641 661.217 568.579 661.251 568.511 661.263C567.059 661.572 565.582 661.742 564.098 661.77V661.77ZM561.547 658.84C561.334 658.826 561.121 658.871 560.932 658.971C560.866 659.005 560.811 659.056 560.772 659.119C560.732 659.182 560.711 659.254 560.709 659.328C560.689 659.527 560.716 659.727 560.788 659.913C560.859 660.098 560.972 660.265 561.118 660.399C561.994 661.169 564.303 661.3 567.394 660.793C565.57 659.81 563.592 659.149 561.547 658.84V658.84Z" fill="#EF5DA8"/>
<path d="M568.436 661.281H568.306C566.612 660.511 563.26 657.525 563.502 655.854C563.502 655.478 563.837 655.009 564.749 654.915C565.082 654.872 565.419 654.899 565.74 654.996C566.061 655.093 566.358 655.258 566.612 655.478C568.474 656.962 568.772 660.774 568.79 660.943C568.8 661.001 568.793 661.06 568.769 661.113C568.746 661.166 568.708 661.212 568.66 661.244C568.591 661.278 568.513 661.291 568.436 661.281ZM565.01 655.535H564.824C564.209 655.535 564.172 655.835 564.172 655.91C564.004 656.887 566.295 659.291 568.027 660.342C567.865 658.726 567.215 657.198 566.165 655.967C565.846 655.683 565.435 655.529 565.01 655.535V655.535Z" fill="#EF5DA8"/>
<path d="M567.58 293.813C570.797 291.54 574.427 289.931 578.263 289.078C582.098 288.225 586.063 288.145 589.93 288.843C593.796 289.541 597.487 291.003 600.791 293.146C604.095 295.288 606.946 298.068 609.181 301.325C615.685 296.755 623.723 294.978 631.527 296.385C639.33 297.792 646.26 302.268 650.791 308.828C655.323 315.387 657.085 323.494 655.69 331.364C654.294 339.233 649.856 346.222 643.352 350.792L594.228 385.253L560.075 335.768C557.824 332.52 556.232 328.856 555.39 324.986C554.549 321.115 554.475 317.115 555.172 313.216C555.87 309.316 557.325 305.595 559.455 302.265C561.584 298.935 564.345 296.062 567.58 293.813Z" fill="#EF5DA8"/>
<path opacity="0.3" d="M567.58 293.813C570.797 291.54 574.427 289.931 578.263 289.078C582.098 288.225 586.063 288.145 589.93 288.843C593.796 289.541 597.487 291.003 600.791 293.146C604.095 295.288 606.946 298.068 609.181 301.325C615.685 296.755 623.723 294.978 631.527 296.385C639.33 297.792 646.26 302.268 650.791 308.828C655.323 315.387 657.085 323.494 655.69 331.364C654.294 339.233 649.856 346.222 643.352 350.792L594.228 385.253L560.075 335.768C557.824 332.52 556.232 328.856 555.39 324.986C554.549 321.115 554.475 317.115 555.172 313.216C555.87 309.316 557.325 305.595 559.455 302.265C561.584 298.935 564.345 296.062 567.58 293.813Z" fill="white"/>
<path d="M502.46 344.763C503.85 338.388 507.692 332.83 513.142 329.309C518.592 325.788 525.205 324.592 531.528 325.983C533.032 319.733 536.901 314.325 542.307 310.915C547.714 307.505 554.229 306.363 560.459 307.735C566.69 309.106 572.14 312.882 575.646 318.254C579.152 323.626 580.434 330.168 579.219 336.481L568.809 384.577L521.119 374.079C517.984 373.391 515.015 372.087 512.38 370.241C509.746 368.395 507.498 366.043 505.765 363.321C504.032 360.598 502.848 357.558 502.281 354.374C501.714 351.19 501.775 347.924 502.46 344.763V344.763Z" fill="#EF5DA8"/>
<path opacity="0.5" d="M502.46 344.763C503.85 338.388 507.692 332.83 513.142 329.309C518.592 325.788 525.205 324.592 531.528 325.983C533.032 319.733 536.901 314.325 542.307 310.915C547.714 307.505 554.229 306.363 560.459 307.735C566.69 309.106 572.14 312.882 575.646 318.254C579.152 323.626 580.434 330.168 579.219 336.481L568.809 384.577L521.119 374.079C517.984 373.391 515.015 372.087 512.38 370.241C509.746 368.395 507.498 366.043 505.765 363.321C504.032 360.598 502.848 357.558 502.281 354.374C501.714 351.19 501.775 347.924 502.46 344.763V344.763Z" fill="white"/>
<path d="M531.863 362.21C537.924 353.086 547.328 346.763 558.01 344.629C568.691 342.495 579.776 344.725 588.828 350.829C591.782 346.201 595.621 342.213 600.12 339.098C604.62 335.983 609.69 333.803 615.034 332.686C620.378 331.569 625.89 331.538 631.246 332.593C636.603 333.648 641.697 335.77 646.232 338.833C650.766 341.896 654.65 345.84 657.656 350.434C660.662 355.028 662.731 360.18 663.74 365.589C664.75 370.998 664.681 376.556 663.536 381.938C662.392 387.32 660.196 392.418 657.076 396.934L611.379 465.744L543.13 419.639C538.643 416.621 534.79 412.74 531.794 408.217C528.798 403.694 526.717 398.62 525.671 393.284C524.624 387.948 524.632 382.457 525.695 377.124C526.758 371.792 528.854 366.723 531.863 362.21V362.21Z" fill="#EF5DA8"/>
<path opacity="0.7" d="M531.863 362.21C537.924 353.086 547.328 346.763 558.01 344.629C568.691 342.495 579.776 344.725 588.828 350.829C591.782 346.201 595.621 342.213 600.12 339.098C604.62 335.983 609.69 333.803 615.034 332.686C620.378 331.569 625.89 331.538 631.246 332.593C636.603 333.648 641.697 335.77 646.232 338.833C650.766 341.896 654.65 345.84 657.656 350.434C660.662 355.028 662.731 360.18 663.74 365.589C664.75 370.998 664.681 376.556 663.536 381.938C662.392 387.32 660.196 392.418 657.076 396.934L611.379 465.744L543.13 419.639C538.643 416.621 534.79 412.74 531.794 408.217C528.798 403.694 526.717 398.62 525.671 393.284C524.624 387.948 524.632 382.457 525.695 377.124C526.758 371.792 528.854 366.723 531.863 362.21V362.21Z" fill="white"/>
<path d="M677.876 288.855C679.105 291.484 680.111 293.813 681.079 296.367C682.048 298.921 682.942 301.288 683.91 303.879C685.772 308.856 687.318 313.908 688.714 319.072C690.162 324.261 691.349 329.519 692.271 334.829L692.941 338.866L693.426 342.979C693.612 344.35 693.686 345.759 693.779 347.148L693.928 349.252V349.777V350.641C693.928 351.317 693.928 351.9 693.928 352.519C693.563 356.212 692.501 359.801 690.8 363.093C689.487 365.741 687.994 368.295 686.331 370.736C683.258 375.202 679.892 379.456 676.256 383.469C669.246 391.236 661.651 398.444 653.538 405.028L646.089 397.516C652.178 389.685 658.23 381.591 663.724 373.553C666.413 369.642 668.9 365.592 671.173 361.421C672.198 359.545 673.094 357.6 673.854 355.599C674.406 354.322 674.721 352.953 674.785 351.562C674.785 351.562 674.785 351.468 674.785 351.562C674.785 351.655 674.785 351.674 674.785 351.562V351.13L674.524 349.439C674.357 348.294 674.208 347.186 673.947 346.021L673.277 342.604L672.476 339.148C671.359 334.547 670.055 329.927 668.584 325.326C667.113 320.725 665.512 316.124 663.817 311.541C662.998 309.25 662.122 306.978 661.229 304.705L658.566 298.095L677.876 288.855Z" fill="#E4897B"/>
<path d="M675.456 278.77C687.988 283.634 696.983 329.871 696.983 329.871L667.188 341.721C667.188 341.721 657.188 318.49 653.836 301.306C650.242 283.221 661.266 273.249 675.456 278.77Z" fill="#EF5DA8"/>
<path opacity="0.2" d="M675.456 278.77C687.988 283.634 696.983 329.871 696.983 329.871L667.188 341.721C667.188 341.721 657.188 318.49 653.836 301.306C650.242 283.221 661.266 273.249 675.456 278.77Z" fill="#E3C3E9"/>
<path d="M649.348 395.413L635.568 399.169L646.983 413.122C646.983 413.122 658.026 407.357 655.643 401.103L649.348 395.413Z" fill="#E4897B"/>
<path d="M625.587 410.719L635.568 421.649L646.983 413.066L635.568 399.113L625.587 410.719Z" fill="#E4897B"/>
<path d="M360.412 220.421C360.412 220.421 367.694 222.994 353.113 313.344H291.102C292.145 287.897 292.182 272.197 280.115 219.97C288.796 218.161 297.597 216.993 306.446 216.477C315.82 215.8 325.229 215.8 334.603 216.477C346.707 217.585 360.412 220.421 360.412 220.421Z" fill="#EF5DA8"/>
<path opacity="0.6" d="M360.412 220.421C360.412 220.421 367.694 222.994 353.113 313.344H291.102C292.145 287.897 292.182 272.197 280.115 219.97C288.796 218.161 297.597 216.993 306.446 216.477C315.82 215.8 325.229 215.8 334.603 216.477C346.707 217.585 360.412 220.421 360.412 220.421Z" fill="white"/>
<path d="M407.507 271.897C404.211 275.033 400.766 278.188 397.321 281.193C393.876 284.198 390.356 287.09 386.818 289.644C385.109 290.891 383.331 292.038 381.492 293.081C380.167 293.871 378.755 294.501 377.284 294.959L377.041 294.32L375.887 291.221C372.987 282.707 370.715 273.988 369.09 265.136C368.196 260.666 367.582 256.14 366.911 251.633C366.241 247.126 365.757 242.469 365.366 238.187L349.779 239.182C350.077 244.309 350.673 248.985 351.325 253.868C351.977 258.751 352.889 263.465 353.913 268.254C355.909 277.888 358.776 287.317 362.479 296.424L364.025 299.879L364.397 300.724L364.602 301.156C364.679 301.349 364.766 301.537 364.863 301.72C365.397 302.809 366.066 303.825 366.855 304.743C367.797 305.828 368.927 306.731 370.189 307.41C371.434 308.06 372.783 308.486 374.174 308.668C376.289 308.897 378.429 308.667 380.449 307.992C383.278 307.024 385.947 305.631 388.364 303.86C390.464 302.357 392.473 300.726 394.378 298.978C401.481 292.296 407.86 284.874 413.41 276.836L407.507 271.897Z" fill="#E4897B"/>
<path d="M360.412 220.421C366.707 222.036 371.101 248.14 371.101 248.14L353.764 260.028C353.764 260.028 337.135 233.736 341.977 226.712C347.023 219.444 351.232 218.055 360.412 220.421Z" fill="#EF5DA8"/>
<path opacity="0.6" d="M360.412 220.421C366.707 222.036 371.101 248.14 371.101 248.14L353.764 260.028C353.764 260.028 337.135 233.736 341.977 226.712C347.023 219.444 351.232 218.055 360.412 220.421Z" fill="white"/>
<path d="M326.372 659.967H341.642L342.666 624.303H327.396L326.372 659.967Z" fill="#E4897B"/>
<path d="M342.163 658.183H325.012C324.715 658.175 324.426 658.278 324.199 658.472C323.972 658.666 323.824 658.938 323.783 659.234L321.828 672.906C321.794 673.253 321.833 673.602 321.941 673.933C322.049 674.263 322.224 674.567 322.456 674.826C322.687 675.084 322.969 675.29 323.285 675.432C323.6 675.574 323.941 675.647 324.286 675.648C330.264 675.648 333.15 675.197 340.692 675.197C345.329 675.197 354.919 675.686 361.343 675.686C367.768 675.686 368.084 669.282 365.422 668.718C353.448 666.108 348.662 662.54 344.714 659.122C344.001 658.514 343.097 658.182 342.163 658.183V658.183Z" fill="#263238"/>
<path d="M342.647 624.303L342.126 642.689H326.856L327.377 624.303H342.647Z" fill="#CE6F64"/>
<path d="M218.272 564.47L229.911 574.443L216.168 586.8L204.529 576.828L218.272 564.47Z" fill="#CE6F64"/>
<path d="M347.899 660.868C346.284 660.831 344.677 660.649 343.094 660.323C343.019 660.306 342.95 660.266 342.897 660.209C342.844 660.153 342.809 660.081 342.796 660.004C342.787 659.93 342.799 659.855 342.833 659.788C342.866 659.721 342.918 659.665 342.983 659.629C343.672 659.272 349.761 656.136 351.642 657.168C351.814 657.27 351.96 657.411 352.067 657.581C352.174 657.751 352.239 657.945 352.256 658.145C352.296 658.47 352.257 658.801 352.144 659.108C352.03 659.415 351.845 659.69 351.604 659.91C350.513 660.645 349.206 660.983 347.899 660.868V660.868ZM344.286 659.798C347.675 660.361 350.189 660.211 351.12 659.384C351.277 659.234 351.396 659.049 351.467 658.843C351.538 658.637 351.56 658.417 351.53 658.201C351.527 658.12 351.503 658.041 351.461 657.972C351.418 657.903 351.359 657.846 351.288 657.807C350.282 657.3 346.781 658.577 344.286 659.798Z" fill="#EF5DA8"/>
<path d="M343.15 660.324C343.083 660.346 343.011 660.346 342.945 660.324C342.897 660.286 342.859 660.237 342.833 660.182C342.807 660.126 342.795 660.066 342.796 660.004C342.796 659.835 343.168 655.685 345.087 654.07C345.359 653.835 345.676 653.659 346.019 653.552C346.362 653.445 346.723 653.411 347.079 653.45C348.085 653.45 348.383 654.051 348.438 654.464C348.718 656.211 345.124 659.535 343.299 660.361L343.15 660.324ZM346.874 654.089C346.415 654.085 345.971 654.252 345.627 654.558C344.503 655.9 343.82 657.56 343.671 659.309C345.533 658.164 347.973 655.553 347.805 654.521C347.805 654.521 347.805 654.164 347.079 654.089H346.874Z" fill="#EF5DA8"/>
<path d="M353.113 313.344C353.113 313.344 365.18 431.94 364.155 478.89C363.113 527.718 345.366 639.121 345.366 639.121H324.733C324.733 639.121 327.992 530.573 326.167 482.608C324.175 430.325 307.713 313.326 307.713 313.326L353.113 313.344Z" fill="#EF5DA8"/>
<path opacity="0.5" d="M353.113 313.344C353.113 313.344 365.18 431.94 364.155 478.89C363.113 527.718 345.366 639.121 345.366 639.121H324.733C324.733 639.121 327.992 530.573 326.167 482.608C324.175 430.325 307.713 313.326 307.713 313.326L353.113 313.344Z" fill="#E3C3E9"/>
<path d="M407.34 270.92L415.589 257.774L420.263 272.704C420.263 272.704 413.503 279.86 407.377 278.151L407.34 270.92Z" fill="#E4897B"/>
<path d="M191.643 588.434L203.282 598.406L229.911 574.443L218.273 564.47L191.643 588.434Z" fill="#E4897B"/>
<path d="M206.466 597.204L195.181 584.189C194.995 583.958 194.729 583.804 194.437 583.759C194.144 583.714 193.845 583.781 193.599 583.945L182.09 591.457C181.809 591.658 181.572 591.916 181.396 592.215C181.219 592.514 181.107 592.847 181.067 593.192C181.026 593.538 181.059 593.888 181.161 594.22C181.264 594.552 181.434 594.858 181.662 595.119C185.666 599.589 187.826 601.542 192.835 607.27C195.889 610.801 199.986 616.266 204.194 621.13C208.403 625.994 213.505 622.05 212.09 619.646C206.15 608.848 207.584 605.054 207.472 599.758C207.448 598.813 207.091 597.908 206.466 597.204V597.204Z" fill="#263238"/>
<path d="M292.666 173.283C279.631 187.913 291.717 220.815 313.877 207.744C336.037 194.673 316.558 182.166 316.558 182.166L292.666 173.283Z" fill="#263238"/>
<path d="M293.747 205.904C293.684 205.903 293.621 205.889 293.564 205.863C293.506 205.838 293.454 205.8 293.411 205.754C287.527 199.857 284.622 193.659 284.771 187.349C285.058 181.595 287.501 176.165 291.605 172.156C291.649 172.111 291.701 172.075 291.758 172.05C291.816 172.025 291.878 172.013 291.94 172.013C292.003 172.013 292.065 172.025 292.122 172.05C292.18 172.075 292.232 172.111 292.276 172.156C292.321 172.2 292.356 172.253 292.381 172.311C292.405 172.369 292.418 172.431 292.418 172.494C292.418 172.557 292.405 172.62 292.381 172.678C292.356 172.736 292.321 172.789 292.276 172.832C288.393 176.689 286.07 181.863 285.758 187.349C285.609 193.378 288.421 199.331 294.1 205.04C294.146 205.084 294.181 205.136 294.206 205.194C294.23 205.253 294.243 205.315 294.243 205.378C294.243 205.441 294.23 205.504 294.206 205.562C294.181 205.62 294.146 205.672 294.1 205.716C294.059 205.772 294.006 205.818 293.945 205.85C293.883 205.883 293.816 205.901 293.747 205.904Z" fill="#263238"/>
<path d="M322.815 144.775C321.288 149.789 332.722 158.804 329.891 171.499C328.383 178.279 331.232 184.645 334.417 186.523C337.601 188.401 349.705 189.19 352.182 183.387C348.079 177.177 345.641 170.002 345.105 162.56C344.044 148.756 327.042 130.897 322.815 144.775Z" fill="#263238"/>
<path d="M324.454 139.836C319.128 130.446 275.534 139.085 290.935 170.353C306.335 201.622 324.454 139.836 324.454 139.836Z" fill="#263238"/>
<path d="M309.314 184.495C311.083 193.641 312.871 210.374 306.521 216.421C306.521 216.421 308.998 225.679 325.832 225.679C344.342 225.679 334.677 216.421 334.677 216.421C324.584 213.979 324.845 206.43 326.595 199.331L309.314 184.495Z" fill="#E4897B"/>
<path d="M316.279 190.561L326.521 199.368C326.077 201.022 325.785 202.713 325.646 204.42C321.791 203.857 316.484 199.575 316.074 195.5C315.852 193.854 315.922 192.182 316.279 190.561V190.561Z" fill="#CE6F64"/>
<path d="M299.687 167.743C303.244 182.598 304.436 188.964 313.3 195.331C326.651 204.89 343.97 197.209 344.957 181.621C345.795 167.555 339.836 145.62 324.212 142.183C320.757 141.398 317.16 141.523 313.766 142.545C310.372 143.567 307.296 145.452 304.833 148.018C302.37 150.585 300.603 153.748 299.702 157.202C298.801 160.656 298.796 164.286 299.687 167.743Z" fill="#E4897B"/>
<path d="M322.946 639.872H347.154L348.942 632.078L321.81 631.139L322.946 639.872Z" fill="#EF5DA8"/>
<path opacity="0.2" d="M326.372 342.848C341.604 373.76 329.426 430.118 324.044 451.077C321.288 419.583 316.595 381.102 313.001 352.82C315.311 336.819 319.351 328.65 326.372 342.848Z" fill="#E3C3E9"/>
<path d="M323.001 167.893C323.225 169.114 324.044 169.997 324.864 169.771C325.683 169.546 326.13 168.513 325.925 167.292C325.721 166.072 324.882 165.189 324.063 165.414C323.243 165.64 322.796 166.672 323.001 167.893Z" fill="#263238"/>
<path d="M336.726 165.452C336.931 166.673 337.75 167.555 338.588 167.33C339.426 167.104 339.855 166.09 339.65 164.87C339.445 163.649 338.607 162.766 337.787 162.898C336.968 163.029 336.502 164.231 336.726 165.452Z" fill="#263238"/>
<path d="M337.433 163.104L340.191 161.752C340.191 161.752 339.11 164.306 337.433 163.104Z" fill="#263238"/>
<path d="M333.523 168.194C335.092 170.794 337.009 173.164 339.221 175.236C338.678 175.791 338.022 176.221 337.299 176.497C336.576 176.772 335.802 176.887 335.031 176.832L333.523 168.194Z" fill="#DE5753"/>
<path d="M329.5 182.579C326.866 182.624 324.319 181.626 322.406 179.8C322.337 179.73 322.299 179.635 322.299 179.537C322.299 179.438 322.337 179.344 322.406 179.274C322.438 179.24 322.478 179.214 322.521 179.196C322.564 179.177 322.61 179.168 322.657 179.168C322.704 179.168 322.75 179.177 322.793 179.196C322.836 179.214 322.875 179.24 322.908 179.274C324.041 180.318 325.402 181.079 326.881 181.493C328.359 181.908 329.914 181.964 331.418 181.659C331.512 181.648 331.606 181.672 331.682 181.728C331.758 181.784 331.81 181.866 331.828 181.959C331.845 182.056 331.822 182.156 331.767 182.237C331.711 182.318 331.626 182.373 331.53 182.391C330.859 182.505 330.181 182.568 329.5 182.579V182.579Z" fill="#263238"/>
<path d="M328.364 143.705C327.936 148.925 313.988 153.095 311.959 165.884C310.878 172.72 305.851 177.659 302.238 178.147C297.271 178.056 292.506 176.147 288.83 172.776C288.443 172.341 288.153 171.827 287.98 171.27C287.806 170.713 287.753 170.124 287.823 169.544C287.894 168.964 288.087 168.406 288.389 167.908C288.691 167.409 289.096 166.982 289.575 166.654C294.677 163.048 300.078 158.653 301.083 151.855C302.312 143.874 329.556 129.225 328.364 143.705Z" fill="#263238"/>
<path d="M299.054 180.532C300.195 183.25 302.348 185.408 305.05 186.542C308.663 188.007 310.879 184.87 310.246 181.208C309.65 177.922 307.08 173.208 303.3 173.302C302.473 173.337 301.668 173.581 300.958 174.009C300.248 174.438 299.655 175.038 299.234 175.757C298.812 176.475 298.575 177.287 298.543 178.121C298.512 178.955 298.687 179.784 299.054 180.532V180.532Z" fill="#E4897B"/>
<path d="M317.974 164.194C317.862 164.211 317.749 164.211 317.638 164.194C317.471 164.098 317.346 163.943 317.287 163.758C317.228 163.574 317.241 163.374 317.322 163.198C317.823 162.154 318.564 161.246 319.484 160.55C320.404 159.855 321.476 159.391 322.61 159.198C322.803 159.178 322.996 159.236 323.146 159.359C323.296 159.483 323.391 159.661 323.411 159.855C323.431 160.05 323.373 160.244 323.251 160.395C323.129 160.547 322.952 160.643 322.759 160.663C321.863 160.825 321.018 161.201 320.296 161.759C319.573 162.318 318.994 163.043 318.607 163.874C318.538 163.979 318.444 164.063 318.333 164.119C318.221 164.176 318.098 164.201 317.974 164.194Z" fill="#263238"/>
<path d="M341.698 157.977C341.6 157.978 341.503 157.958 341.414 157.92C341.324 157.881 341.243 157.824 341.176 157.752C340.566 157.07 339.803 156.545 338.952 156.218C338.1 155.892 337.184 155.774 336.279 155.874C336.103 155.882 335.931 155.826 335.794 155.716C335.656 155.606 335.563 155.449 335.531 155.275C335.499 155.101 335.531 154.921 335.621 154.769C335.71 154.617 335.851 154.502 336.018 154.447C337.16 154.297 338.321 154.429 339.401 154.831C340.481 155.233 341.448 155.894 342.219 156.757C342.354 156.894 342.43 157.08 342.43 157.273C342.43 157.467 342.354 157.652 342.219 157.79C342.075 157.916 341.889 157.983 341.698 157.977V157.977Z" fill="#263238"/>
<path d="M300.003 280.348C292.555 284.104 284.883 288.16 277.415 291.221C276 291.822 274.585 292.329 273.225 292.78C273.374 291.897 273.505 291.015 273.654 290.132C274.361 286.151 275.218 282.151 276.298 278.151C277.378 274.15 278.477 270.113 279.706 266.113C282.238 258.169 285.032 250.056 287.955 242.375L273.505 236.421C270.165 244.65 267.274 253.058 264.846 261.605C262.307 270.209 260.439 279 259.259 287.897C259.036 290.207 258.756 292.498 258.7 294.902L258.607 296.668C258.546 297.858 258.64 299.051 258.887 300.217C259.13 301.203 259.519 302.146 260.041 303.015C260.651 304.007 261.44 304.874 262.369 305.569C263.784 306.626 265.458 307.275 267.211 307.447C268.256 307.576 269.312 307.576 270.358 307.447C271.155 307.323 271.944 307.153 272.723 306.94C273.993 306.581 275.237 306.136 276.447 305.607C278.634 304.679 280.761 303.613 282.816 302.414C290.452 297.889 297.664 292.672 304.361 286.827L300.003 280.348Z" fill="#E4897B"/>
<path d="M210.619 604.716H210.395C208.533 604.509 206.671 601.429 205.647 599.627C205.607 599.565 205.586 599.493 205.586 599.42C205.586 599.347 205.607 599.275 205.647 599.213C205.691 599.16 205.75 599.121 205.816 599.101C205.883 599.081 205.953 599.081 206.019 599.101C206.634 599.27 211.922 600.81 212.5 602.688C212.561 602.9 212.565 603.124 212.513 603.338C212.46 603.553 212.353 603.749 212.202 603.908C212.01 604.148 211.769 604.344 211.496 604.484C211.223 604.623 210.924 604.702 210.619 604.716V604.716ZM206.708 600.04C208.049 602.406 209.446 603.796 210.433 603.984C210.67 603.998 210.906 603.953 211.121 603.851C211.336 603.749 211.522 603.594 211.662 603.401C211.729 603.334 211.776 603.249 211.799 603.157C211.822 603.064 211.82 602.967 211.792 602.875C211.55 601.805 208.757 600.641 206.727 599.965L206.708 600.04Z" fill="#EF5DA8"/>
<path d="M208.403 600.021C207.542 600.045 206.682 599.938 205.852 599.702C205.795 599.677 205.744 599.639 205.705 599.59C205.666 599.541 205.64 599.482 205.629 599.42C205.616 599.359 205.62 599.295 205.64 599.236C205.659 599.177 205.694 599.124 205.74 599.082C205.889 598.951 209.241 596.077 211.327 596.34C211.605 596.368 211.873 596.458 212.111 596.604C212.35 596.751 212.553 596.949 212.705 597.185C212.882 597.413 212.978 597.694 212.978 597.983C212.978 598.273 212.882 598.554 212.705 598.782C211.47 599.712 209.939 600.153 208.403 600.021ZM206.765 599.176C208.627 599.514 211.588 599.176 212.24 598.331C212.351 598.199 212.444 597.974 212.24 597.598C212.143 597.447 212.015 597.32 211.863 597.226C211.712 597.132 211.541 597.073 211.364 597.054C209.652 597.271 208.047 598.012 206.765 599.176Z" fill="#EF5DA8"/>
<path d="M323.727 165.565L326.485 164.194C326.485 164.194 325.386 166.748 323.727 165.565Z" fill="#263238"/>
<path d="M336.744 313.344C336.744 313.344 322.703 436.654 312.088 476.242C299.5 523.192 221.27 586.481 221.27 586.481L205.404 572.903C205.404 572.903 262.107 504.187 271.735 479.435C292.219 426.588 274.696 347.824 291.102 313.344H336.744Z" fill="#EF5DA8"/>
<path opacity="0.5" d="M336.744 313.344C336.744 313.344 322.703 436.654 312.088 476.242C299.5 523.192 221.27 586.481 221.27 586.481L205.404 572.903C205.404 572.903 262.107 504.187 271.735 479.435C292.219 426.588 274.696 347.824 291.102 313.344H336.744Z" fill="#E3C3E9"/>
<path d="M202.872 572.17L222.555 589.035L229.911 584.584L207.639 563.701L202.872 572.17Z" fill="#EF5DA8"/>
<path d="M290.19 309.682L288.588 315.316C288.384 315.748 288.886 316.18 289.613 316.18H353.429C353.988 316.18 354.454 315.917 354.491 315.56L355.05 309.926C355.05 309.532 354.603 309.213 353.988 309.213H291.195C291.002 309.194 290.806 309.228 290.63 309.31C290.453 309.393 290.301 309.521 290.19 309.682V309.682Z" fill="#EF5DA8"/>
<path opacity="0.2" d="M290.19 309.682L288.588 315.316C288.384 315.748 288.886 316.18 289.613 316.18H353.429C353.988 316.18 354.454 315.917 354.491 315.56L355.05 309.926C355.05 309.532 354.603 309.213 353.988 309.213H291.195C291.002 309.194 290.806 309.228 290.63 309.31C290.453 309.393 290.301 309.521 290.19 309.682V309.682Z" fill="white"/>
<path d="M298.607 316.762H296.931C296.596 316.762 296.335 316.574 296.372 316.368L297.154 309.1C297.154 308.875 297.471 308.706 297.806 308.706H299.483C299.818 308.706 300.079 308.875 300.06 309.1L299.259 316.368C299.241 316.574 298.942 316.762 298.607 316.762Z" fill="#EF5DA8"/>
<path d="M348.7 316.762H347.023C346.688 316.762 346.427 316.574 346.446 316.368L347.247 309.1C347.247 308.875 347.564 308.706 347.899 308.706H349.575C349.911 308.706 350.153 308.875 350.134 309.1L349.352 316.368C349.333 316.574 349.035 316.762 348.7 316.762Z" fill="#EF5DA8"/>
<path d="M323.654 316.762H321.977C321.642 316.762 321.381 316.574 321.4 316.368L322.201 309.1C322.201 308.875 322.518 308.706 322.853 308.706H324.529C324.865 308.706 325.125 308.875 325.107 309.1L324.306 316.368C324.213 316.574 323.989 316.762 323.654 316.762Z" fill="#EF5DA8"/>
<path opacity="0.5" d="M298.607 316.762H296.931C296.596 316.762 296.335 316.574 296.372 316.368L297.154 309.1C297.154 308.875 297.471 308.706 297.806 308.706H299.483C299.818 308.706 300.079 308.875 300.06 309.1L299.259 316.368C299.241 316.574 298.942 316.762 298.607 316.762Z" fill="#E3C3E9"/>
<path opacity="0.5" d="M348.7 316.762H347.023C346.688 316.762 346.427 316.574 346.446 316.368L347.247 309.1C347.247 308.875 347.564 308.706 347.899 308.706H349.575C349.911 308.706 350.153 308.875 350.134 309.1L349.352 316.368C349.333 316.574 349.035 316.762 348.7 316.762Z" fill="#E3C3E9"/>
<path opacity="0.5" d="M323.654 316.762H321.977C321.642 316.762 321.381 316.574 321.4 316.368L322.201 309.1C322.201 308.875 322.518 308.706 322.853 308.706H324.529C324.865 308.706 325.125 308.875 325.107 309.1L324.306 316.368C324.213 316.574 323.989 316.762 323.654 316.762Z" fill="#E3C3E9"/>
<path d="M411.455 230.994C404.806 225.961 396.714 223.246 388.401 223.257V221.379C397.132 221.345 405.635 224.194 412.609 229.492L411.455 230.994Z" fill="#EF5DA8"/>
<path d="M420.915 241.285C419.228 238.611 417.227 236.152 414.956 233.961L416.241 232.609C418.625 234.899 420.726 237.472 422.498 240.271L420.915 241.285Z" fill="#EF5DA8"/>
<path opacity="0.2" d="M411.455 230.994C404.806 225.961 396.714 223.246 388.401 223.257V221.379C397.132 221.345 405.635 224.194 412.609 229.492L411.455 230.994Z" fill="#E3C3E9"/>
<path opacity="0.2" d="M420.915 241.285C419.228 238.611 417.227 236.152 414.956 233.961L416.241 232.609C418.625 234.899 420.726 237.472 422.498 240.271L420.915 241.285Z" fill="#E3C3E9"/>
<path d="M313.895 248.478C319.276 241.234 327.288 236.44 336.171 235.151C345.055 233.862 354.082 236.184 361.269 241.605C366.715 234.541 374.693 229.915 383.486 228.724C392.28 227.532 401.186 229.869 408.287 235.232C415.389 240.595 420.12 248.556 421.461 257.401C422.802 266.245 420.647 275.268 415.459 282.526L374.882 337.176L320.692 296.273C317.134 293.585 314.136 290.216 311.869 286.36C309.602 282.503 308.11 278.234 307.479 273.795C306.847 269.357 307.089 264.837 308.19 260.493C309.291 256.149 311.23 252.067 313.895 248.478V248.478Z" fill="#EF5DA8"/>
<path opacity="0.2" d="M313.895 248.478C319.276 241.234 327.288 236.44 336.171 235.151C345.055 233.862 354.082 236.184 361.269 241.605C366.715 234.541 374.693 229.915 383.486 228.724C392.28 227.532 401.186 229.869 408.287 235.232C415.389 240.595 420.12 248.556 421.461 257.401C422.802 266.245 420.647 275.268 415.459 282.526L374.882 337.176L320.692 296.273C317.134 293.585 314.136 290.216 311.869 286.36C309.602 282.503 308.11 278.234 307.479 273.795C306.847 269.357 307.089 264.837 308.19 260.493C309.291 256.149 311.23 252.067 313.895 248.478V248.478Z" fill="#E3C3E9"/>
<path d="M313.653 258.976L319.91 270.488L311.177 279.484L303.002 266.188L313.653 258.976Z" fill="#E4897B"/>
<path d="M297.881 282.001L303.002 266.188L311.177 279.484C311.177 279.484 306.372 288.104 300.004 287.973L297.881 282.001Z" fill="#E4897B"/>
<path d="M280.116 219.97C273.915 221.848 266.447 243.445 266.447 243.445L290.544 260.817C290.544 260.817 299.333 242.807 296.726 234.712C294.007 226.28 287.21 217.848 280.116 219.97Z" fill="#EF5DA8"/>
<path opacity="0.6" d="M280.116 219.97C273.915 221.848 266.447 243.445 266.447 243.445L290.544 260.817C290.544 260.817 299.333 242.807 296.726 234.712C294.007 226.28 287.21 217.848 280.116 219.97Z" fill="white"/>
<path d="M427.674 253.436L430.933 266.15L420.263 272.723L415.589 257.793L427.674 253.436Z" fill="#E4897B"/>
</svg>
