<svg width="151" height="136" viewBox="0 0 151 136" fill="none" xmlns="http://www.w3.org/2000/svg">
<g clip-path="url(#clip0_79_3096)">
<path opacity="0.25" d="M31.5215 17.7104C31.5215 17.7104 -0.216204 26.1453 1.00315e-06 46.3246C0.216206 66.504 -2.11762 122.702 33.186 123.489C58.2895 124.05 129.889 142.426 141.105 122.702C152.321 102.977 150.852 61.6493 150.852 61.6493C150.852 61.6493 154.205 26.0531 129.036 21.4718C112.747 18.5007 85.9164 25.6877 72.0644 18.6463C58.2125 11.6049 31.5215 17.7104 31.5215 17.7104Z" fill="#EF5DA8"/>
<path opacity="0.25" d="M25.6929 75.1855C27.3573 72.2145 28.4117 68.9463 29.6971 65.8059C34.658 53.6632 43.7415 42.7297 55.9556 38.0384C60.8869 36.1459 66.1558 35.314 71.4069 34.7703C79.0156 33.9889 86.7575 33.7988 94.2625 35.2872C101.767 36.7757 109.071 40.0409 114.5 45.4245C122.71 53.5771 125.834 65.4613 127.733 76.885C129.255 86.0358 130.132 95.8076 126.344 104.272C122.345 113.203 113.709 119.249 104.667 122.936C89.2282 129.166 72.0971 129.75 56.2726 124.585C46.8395 121.472 37.9099 116.183 31.7496 108.375C25.5892 100.567 22.4498 90.0676 24.7096 80.3671" fill="#EF5DA8"/>
<path d="M86.5976 31.918C85.6617 31.716 84.4622 31.4902 83.932 32.2924C83.6359 32.7559 83.7158 33.3709 83.8994 33.8908C85.0841 37.2838 89.5622 38.9892 90.0124 42.5604C90.276 44.655 89.0143 46.604 88.4664 48.6421C87.9185 50.6803 88.6737 53.5295 90.7765 53.6572C92.059 53.7345 93.4065 52.7154 94.535 53.3275C94.9702 53.6121 95.317 54.0135 95.536 54.4862C97.6973 58.3217 98.715 62.6993 98.4681 67.0983C98.4796 67.7047 98.3282 68.303 98.0298 68.8304C97.6388 69.4246 96.9606 69.7217 96.3268 70.0188C87.8356 74.1783 83.2153 83.4421 79.8597 92.3017C79.8443 91.2118 79.5424 90.1452 78.9843 89.2098C78.4263 88.2744 77.632 87.5034 76.6817 86.9746C76.1457 86.6775 75.5593 86.4725 75.0972 86.0833C74.4634 85.5396 74.1436 84.7256 73.803 83.962C71.8822 79.6582 68.7138 76.0346 64.7105 73.5633C66.4224 71.8223 69.0109 71.3647 71.4217 70.9963L94.3158 67.4964C95.6811 67.2884 97.4671 66.4981 97.1294 65.1552C87.2788 64.8977 77.4271 64.7581 67.5745 64.7363C66.9347 63.432 67.9713 61.8306 69.2893 61.2245C70.6073 60.6184 72.1177 60.6719 73.5571 60.4728C75.2921 60.223 76.9537 59.6038 78.4304 58.6568C79.9072 57.7099 81.165 56.457 82.1194 54.9823C77.5258 52.8729 71.4573 56.765 67.3287 53.8415C67.0237 53.6597 66.7912 53.3771 66.6712 53.0422C66.4816 52.3292 67.1687 51.7231 67.7403 51.2596C70.2613 49.2021 71.8845 46.2407 72.2658 43.003C72.3606 42.1593 72.2658 41.1135 71.4869 40.7629C70.7702 40.4361 69.9705 40.9382 69.3426 41.4135L62.0568 46.9635C60.2798 44.2657 58.4761 41.5264 57.5046 38.4425C56.5332 35.3585 57.6083 34.5029 59.2343 31.7101C60.1613 30.1176 60.419 26.1067 60.9935 24.3567C62.3737 20.218 59.3024 16.2398 57.481 16.4983C56.5924 16.629 54.0839 16.73 53.5182 17.4431C47.8732 24.5736 45.4001 21.3262 43.5313 30.2186C41.9379 37.7948 43.6646 62.4011 42.0712 69.9802C41.4403 72.975 40.8095 75.9847 40.6466 79.039C40.4452 82.8152 40.9576 86.5854 41.1441 90.3587C41.7039 101.773 39.2575 113.355 41.4403 124.57C46.7981 117.541 43.8956 107.196 47.1387 98.9658C47.9383 96.9455 49.6531 94.8063 51.7915 95.1718C53.7818 95.5194 54.7532 97.9586 54.457 99.9611C54.1609 101.964 52.9762 103.705 52.1913 105.573C49.3599 112.339 52.4875 121.023 58.9618 124.422C60.2739 122.969 60.419 120.818 60.2768 118.863C60.1347 116.908 59.7881 114.9 60.3627 113.028C60.9373 111.156 62.8446 109.498 64.7223 110.033C67.536 114.614 64.9563 121.323 68.3445 125.503C71.3773 129.235 77.1378 128.575 81.8322 127.583C83.2123 125.907 81.4797 123.489 79.7886 122.131C78.0974 120.773 76.119 118.723 77.0964 116.783C79.1793 117.946 81.5012 118.613 83.8822 118.732C86.2632 118.85 88.6394 118.417 90.8269 117.467C91.363 117.271 91.8367 116.935 92.1982 116.492C92.5476 115.993 92.6158 115.354 92.6572 114.748C93.063 108.874 92.2752 102.311 95.9743 97.7388C95.5722 100.681 95.8997 103.677 96.928 106.462C97.9913 109.32 99.8127 112.131 99.3833 115.149C99.1463 116.819 98.2904 118.75 99.3981 120.019C100.26 121.008 101.794 120.91 103.091 120.717C104.466 120.521 105.958 120.259 106.876 119.231C108.197 117.746 107.703 115.414 107.06 113.518C105.84 109.926 104.332 106.325 104.323 102.525C104.315 98.7252 106.29 94.6073 109.909 93.505C111.328 99.5392 110.087 105.826 109.364 111.982C108.642 118.138 108.562 124.808 111.914 130.013C113.816 129.927 115.391 128.358 116.084 126.582C116.777 124.805 116.766 122.841 116.745 120.937L116.555 104.364C117.501 103.835 118.301 103.079 118.884 102.163C119.467 101.247 119.813 100.201 119.893 99.1173L126.832 98.7133L125.722 123.002C125.648 124.674 125.811 126.754 127.345 127.414C128.53 127.931 129.987 127.161 130.668 126.044C131.349 124.927 131.459 123.56 131.542 122.25C132.258 111.102 132.366 99.923 131.864 88.7632C131.854 87.5889 131.71 86.4196 131.435 85.2782C131.053 83.9056 130.307 82.6696 129.705 81.3772C125.47 72.2947 128.396 60.6184 122.799 52.3084L108.742 38.2048L110.164 36.5351C110.205 35.6913 109.382 35.109 108.727 34.5771C107.495 33.5848 106.592 32.2478 105.523 31.0772C102.988 28.3023 100.281 26.2849 97.0643 28.84C94.0107 31.2377 90.584 32.7796 86.5976 31.918Z" fill="url(#paint0_linear_79_3096)"/>
<path d="M44.5679 113.512H31.6459C30.0249 113.512 28.7109 114.83 28.7109 116.456V116.459C28.7109 118.085 30.0249 119.404 31.6459 119.404H44.5679C46.1889 119.404 47.503 118.085 47.503 116.459V116.456C47.503 114.83 46.1889 113.512 44.5679 113.512Z" fill="#8C6239"/>
<path d="M44.5679 113.512H31.6459C30.0249 113.512 28.7109 114.83 28.7109 116.456V116.459C28.7109 118.085 30.0249 119.404 31.6459 119.404H44.5679C46.1889 119.404 47.503 118.085 47.503 116.459V116.456C47.503 114.83 46.1889 113.512 44.5679 113.512Z" fill="url(#paint1_linear_79_3096)"/>
<path d="M131.171 96.5474H118.249C116.628 96.5474 115.314 97.8656 115.314 99.4917V99.4947C115.314 101.121 116.628 102.439 118.249 102.439H131.171C132.792 102.439 134.106 101.121 134.106 99.4947V99.4917C134.106 97.8656 132.792 96.5474 131.171 96.5474Z" fill="#8C6239"/>
<path d="M131.171 110.609H118.249C116.628 110.609 115.314 111.928 115.314 113.554V113.557C115.314 115.183 116.628 116.501 118.249 116.501H131.171C132.792 116.501 134.106 115.183 134.106 113.557V113.554C134.106 111.928 132.792 110.609 131.171 110.609Z" fill="#8C6239"/>
<path d="M131.171 96.5474H118.249C116.628 96.5474 115.314 97.8656 115.314 99.4917V99.4947C115.314 101.121 116.628 102.439 118.249 102.439H131.171C132.792 102.439 134.106 101.121 134.106 99.4947V99.4917C134.106 97.8656 132.792 96.5474 131.171 96.5474Z" fill="url(#paint2_linear_79_3096)"/>
<path d="M131.171 110.609H118.249C116.628 110.609 115.314 111.928 115.314 113.554V113.557C115.314 115.183 116.628 116.501 118.249 116.501H131.171C132.792 116.501 134.106 115.183 134.106 113.557V113.554C134.106 111.928 132.792 110.609 131.171 110.609Z" fill="url(#paint3_linear_79_3096)"/>
<path d="M46.1731 115.316C45.9657 115.644 45.8846 116.037 45.9451 116.421C46.0724 116.95 46.5996 117.265 47.0794 117.52L56.1807 122.378C56.5176 122.601 56.9186 122.705 57.321 122.675C58.1681 122.514 58.3043 121.29 57.9133 120.53C57.1226 119.044 55.159 118.272 54.9102 116.62C54.8421 116.18 54.4452 113.53 54.3919 113.087C54.1668 111.224 52.3927 111.875 52.3927 111.875C51.8241 111.848 50.6157 110.803 50.0233 110.945C48.3914 111.349 46.7951 114.112 46.1731 115.316Z" fill="#EF5DA8"/>
<path d="M44.5679 99.453H31.6459C30.0249 99.453 28.7109 100.771 28.7109 102.397V102.4C28.7109 104.026 30.0249 105.345 31.6459 105.345H44.5679C46.1889 105.345 47.503 104.026 47.503 102.4V102.397C47.503 100.771 46.1889 99.453 44.5679 99.453Z" fill="#8C6239"/>
<path d="M44.5679 99.453H31.6459C30.0249 99.453 28.7109 100.771 28.7109 102.397V102.4C28.7109 104.026 30.0249 105.345 31.6459 105.345H44.5679C46.1889 105.345 47.503 104.026 47.503 102.4V102.397C47.503 100.771 46.1889 99.453 44.5679 99.453Z" fill="url(#paint4_linear_79_3096)"/>
<path d="M34.3292 88.3889C34.3292 86.8317 33.0715 85.5693 31.5201 85.5693C29.9686 85.5693 28.7109 86.8317 28.7109 88.3889V133.178C28.7109 134.735 29.9686 135.997 31.5201 135.997C33.0715 135.997 34.3292 134.735 34.3292 133.178V88.3889Z" fill="#8C6239"/>
<path d="M47.503 88.3889C47.503 86.8317 46.2452 85.5693 44.6938 85.5693C43.1423 85.5693 41.8846 86.8317 41.8846 88.3889V133.178C41.8846 134.735 43.1423 135.997 44.6938 135.997C46.2452 135.997 47.503 134.735 47.503 133.178V88.3889Z" fill="#8C6239"/>
<path d="M45.2135 82.2001C46.0043 82.2685 46.8543 82.3635 47.4526 82.8894C48.1427 83.4836 48.3056 84.4908 48.3411 85.4059C48.3707 86.0595 48.3263 86.7964 47.8376 87.2331C47.4798 87.5017 47.0516 87.6597 46.6055 87.6877C42.9804 88.267 24.1202 90.8281 26.919 83.3381C28.7286 78.5012 41.4996 81.8703 45.2135 82.2001Z" fill="#8C6239"/>
<path d="M45.2135 82.2001C46.0043 82.2685 46.8543 82.3635 47.4526 82.8894C48.1427 83.4836 48.3056 84.4908 48.3411 85.4059C48.3707 86.0595 48.3263 86.7964 47.8376 87.2331C47.4798 87.5017 47.0516 87.6597 46.6055 87.6877C42.9804 88.267 24.1202 90.8281 26.919 83.3381C28.7286 78.5012 41.4996 81.8703 45.2135 82.2001Z" fill="url(#paint5_linear_79_3096)"/>
<path d="M53.7522 112.903C57.8986 107.555 61.269 103.2 64.9534 97.5337C66.5793 95.0321 68.1846 92.4532 68.9813 89.5743C69.778 86.6953 69.6832 83.4331 68.0602 80.9285C66.6652 78.7686 64.3462 77.4227 62.1131 76.157L52.7185 70.8329C49.8397 71.2191 47.0587 71.7539 44.9203 73.7237C44.017 74.5556 43.1907 75.5717 42.9952 76.7869C42.5213 79.7074 45.6608 81.7872 48.3263 83.0439L58.6153 87.8838C58.9894 88.0199 59.3177 88.2588 59.563 88.573C59.9777 89.2267 59.5779 90.0794 59.1691 90.7389C56.8945 94.423 54.3327 97.9467 52.4224 101.836C50.5121 105.725 49.4932 107.311 50.0737 111.608C50.9711 111.81 52.8637 112.701 53.7522 112.903Z" fill="#EF5DA8"/>
<path d="M53.7522 112.903C57.8986 107.555 61.269 103.2 64.9534 97.5337C66.5793 95.0321 68.1846 92.4532 68.9813 89.5743C69.778 86.6953 69.6832 83.4331 68.0602 80.9285C66.6652 78.7686 64.3462 77.4227 62.1131 76.157L52.7185 70.8329C49.8397 71.2191 47.0587 71.7539 44.9203 73.7237C44.017 74.5556 43.1907 75.5717 42.9952 76.7869C42.5213 79.7074 45.6608 81.7872 48.3263 83.0439L58.6153 87.8838C58.9894 88.0199 59.3177 88.2588 59.563 88.573C59.9777 89.2267 59.5779 90.0794 59.1691 90.7389C56.8945 94.423 54.3327 97.9467 52.4224 101.836C50.5121 105.725 49.4932 107.311 50.0737 111.608C50.9711 111.81 52.8637 112.701 53.7522 112.903Z" fill="url(#paint6_linear_79_3096)"/>
<path d="M46.9905 90.5667C52.9761 93.0802 58.5708 97.1624 61.5029 102.977C63.6146 107.187 64.1892 111.976 65.5012 116.501C65.8596 117.731 66.295 118.985 67.1568 119.93C68.0187 120.874 69.4107 121.445 70.6043 120.993C72.2806 120.363 72.7456 118.251 72.9736 116.471C73.6045 111.343 74.2324 106.156 73.6193 101.022C73.0062 95.8879 71.0219 90.7479 67.1746 87.3134C65.7471 86.0388 64.1033 85.0316 62.4744 84.0452L52.4963 77.9397C47.6836 74.9924 37.0421 69.9179 33.6924 77.8209C30.6093 85.1089 42.4473 88.6622 46.9905 90.5667Z" fill="#EF5DA8"/>
<path d="M46.9905 90.5667C52.9761 93.0802 58.5708 97.1624 61.5029 102.977C63.6146 107.187 64.1892 111.976 65.5012 116.501C65.8596 117.731 66.295 118.985 67.1568 119.93C68.0187 120.874 69.4107 121.445 70.6043 120.993C72.2806 120.363 72.7456 118.251 72.9736 116.471C73.6045 111.343 74.2324 106.156 73.6193 101.022C73.0062 95.8879 71.0219 90.7479 67.1746 87.3134C65.7471 86.0388 64.1033 85.0316 62.4744 84.0452L52.4963 77.9397C47.6836 74.9924 37.0421 69.9179 33.6924 77.8209C30.6093 85.1089 42.4473 88.6622 46.9905 90.5667Z" fill="url(#paint7_linear_79_3096)"/>
<path d="M64.7312 38.4841C66.0669 37.1709 66.677 31.8438 67.5715 32.9134C67.8173 33.4838 67.8173 33.8047 67.4293 36.8916C67.9091 35.8042 68.6999 34.7168 68.7591 33.1392C68.7674 33.0381 68.8135 32.9438 68.8882 32.8755C68.963 32.8071 69.0608 32.7697 69.1619 32.7708C69.3663 32.7856 69.4581 33.0322 69.4936 33.2343C69.7365 34.5831 69.5766 35.6794 68.9013 37.3729C70.0178 36.8114 69.9823 34.9961 70.3496 33.8255C70.3774 33.7478 70.4306 33.6818 70.5006 33.6384C70.5706 33.5949 70.6532 33.5765 70.735 33.5861C70.8167 33.5958 70.8928 33.6329 70.9508 33.6915C71.0088 33.7501 71.0453 33.8266 71.0544 33.9087C71.2677 36.0419 70.5687 36.7787 70.1926 38.1454C70.4888 37.3521 71.0396 36.7371 71.5698 36.0865C71.6109 36.0449 71.6632 36.0165 71.7204 36.0047C71.7775 35.9929 71.8368 35.9983 71.8909 36.0201C71.945 36.042 71.9915 36.0795 72.0244 36.1277C72.0574 36.176 72.0754 36.233 72.0762 36.2915C71.9222 37.777 71.2055 39.2298 70.6428 40.5876C70.3299 41.3782 69.8763 42.1051 69.3041 42.7327C66.2654 45.9771 63.2385 43.2735 63.1467 40.0588C63.123 39.313 63.4428 36.3063 64.0174 35.9498C64.746 35.4982 64.7519 37.9612 64.7312 38.4841Z" fill="url(#paint8_linear_79_3096)"/>
<path d="M63.9256 42.792C64.0678 42.6762 67.6041 44.233 67.6366 44.3786C68.5903 48.5707 65.599 51.6755 63.0016 55.0952C62.196 56.1529 61.1949 57.2759 59.871 57.3264C58.7959 57.365 50.82 56.8243 50.1477 55.9805C49.0993 54.6703 53.8173 50.9149 54.0809 49.2303C54.4807 46.6633 56.6043 49.1947 58.3635 48.1043C60.9639 46.491 61.7488 44.5866 63.9256 42.792Z" fill="#EF5DA8"/>
<path d="M64.0441 42.792C64.1863 42.6762 67.7226 44.233 67.7551 44.3786C68.7088 48.5707 65.7204 51.6755 63.1201 55.0952C62.3145 56.1529 61.3134 57.2759 59.9895 57.3264C58.9144 57.365 49.9582 56.8243 49.2859 55.9805C48.2374 54.6703 50.0026 48.0092 50.2662 46.3246C50.669 43.7576 56.7228 49.1947 58.482 48.1073C61.0824 46.491 61.8673 44.5866 64.0441 42.792Z" fill="url(#paint9_linear_79_3096)"/>
<path d="M80.4549 48.3865C80.5142 48.6455 80.5121 48.9148 80.4488 49.1728C80.3856 49.4307 80.2629 49.6703 80.0906 49.8721C82.1638 49.1263 83.3989 48.4965 85.4721 47.7507C85.5354 47.7161 85.6092 47.7058 85.6795 47.7219C85.7499 47.7379 85.812 47.7792 85.8542 47.8379C85.8963 47.8966 85.9157 47.9688 85.9086 48.0408C85.9015 48.1128 85.8685 48.1798 85.8156 48.2291C85.4454 48.7134 83.5707 49.6849 83.1886 49.9731C83.3071 49.9255 85.7149 49.0075 86.0259 48.9273C86.0833 48.9095 86.1449 48.9107 86.2014 48.9309C86.258 48.951 86.3066 48.989 86.3399 49.0391C86.3732 49.0893 86.3895 49.1489 86.3863 49.209C86.3831 49.2692 86.3606 49.3267 86.3221 49.3729C86.1 49.7295 85.2855 50.0682 83.695 51.0605C83.7957 51.0189 85.4099 50.5138 86.2806 50.1692C86.873 49.9285 86.8996 50.5406 86.3369 50.8941C85.629 51.3427 84.6013 51.8211 84.5006 51.9964C84.3999 52.1717 86.2244 51.3576 86.3636 51.5507C86.7456 52.0796 84.1837 53.4195 83.4315 53.8652C82.0809 54.6644 80.4075 55.4784 78.8467 55.6478C78.6194 55.6745 78.3898 55.6745 78.1626 55.6478C77.742 55.5884 76.3322 55.728 75.9679 55.5052C75.2749 55.0863 75.0113 54.0464 74.8839 53.1283C74.7566 52.2103 75.7251 51.9102 76.3944 51.5893C77.9819 50.8347 78.826 49.0699 80.4549 48.3865Z" fill="url(#paint10_linear_79_3096)"/>
<path d="M141.57 63.3815C141.569 64.3331 141.192 65.2455 140.521 65.9184C139.85 66.5913 138.941 66.9697 137.992 66.9705H12.8746C12.2492 66.9721 11.6344 66.8092 11.0914 66.4981C10.5484 66.187 10.0962 65.7386 9.77975 65.1976C9.46334 64.6565 9.2938 64.0417 9.28805 63.4145C9.2823 62.7872 9.44054 62.1694 9.74699 61.6226C9.90751 61.3324 10.1068 61.0655 10.3393 60.8293C10.6745 60.5012 11.0711 60.2428 11.5061 60.0689C11.9412 59.8951 12.4063 59.8092 12.8746 59.8162H137.977C138.925 59.8115 139.836 60.1843 140.509 60.8529C141.183 61.5214 141.564 62.4309 141.57 63.3815Z" fill="#8C6239"/>
<path d="M141.105 61.6494C140.944 61.9396 140.745 62.2065 140.513 62.4427C140.181 62.777 139.787 63.0422 139.353 63.2227C138.919 63.4032 138.453 63.4956 137.983 63.4944H12.8746C12.2366 63.4945 11.6103 63.3235 11.0604 62.9991C10.5104 62.6747 10.057 62.2087 9.74701 61.6494C9.90754 61.3592 10.1068 61.0923 10.3394 60.8561C10.6724 60.5232 11.0679 60.2599 11.5031 60.0814C11.9383 59.9029 12.4044 59.8128 12.8746 59.8163H137.977C138.614 59.815 139.24 59.9842 139.79 60.3064C140.339 60.6287 140.793 61.0923 141.105 61.6494Z" fill="url(#paint11_linear_79_3096)"/>
<path d="M41.1175 29.0717C33.731 41.8472 30.1592 58.8149 31.9895 73.4622C32.1938 75.0963 32.5552 76.8968 33.8791 77.8683C34.8031 78.5457 36.0115 78.6705 37.1547 78.721C39.2002 78.8127 41.2497 78.7481 43.2855 78.5279C46.1731 78.2129 49.2889 77.4256 51.0303 75.0933C51.9929 73.8069 52.4105 72.2025 52.8074 70.6367C53.6544 67.3181 52.0136 56.2598 53.5123 45.5462C54.1994 40.6232 55.3841 38.1275 49.1645 29.5114C47.9798 27.8506 48.5366 27.2831 46.5167 26.9593C44.4968 26.6354 42.2281 27.3574 41.1145 29.0806" fill="#EF5DA8"/>
<path d="M53.5152 45.5551C52.0166 56.2687 53.6574 67.327 52.8103 70.6457C52.4105 72.2025 51.9929 73.8069 51.0333 75.1023C49.7005 76.8849 47.5622 77.7762 45.335 78.2219C45.335 75.2062 45.2017 70.1703 44.6952 62.1098C44.0081 51.1853 46.7892 36.6063 48.6343 28.427C48.9324 28.9979 49.2688 29.5478 49.6413 30.073C55.2419 37.566 54.1994 40.6232 53.5152 45.5551Z" fill="url(#paint12_linear_79_3096)"/>
<path d="M51.5605 50.8317C53.3375 54.3197 55.7069 58.0603 59.5393 58.8833C60.8987 59.1804 62.3085 59.0556 63.6857 58.91C67.4372 58.5139 71.1611 57.9414 74.8573 57.1927C75.8465 56.9937 77.0312 56.5985 77.2267 55.5884C77.3422 54.9377 76.6343 52.5163 76.193 52.0231C74.416 50.1216 71.9311 51.3041 69.3307 51.3457C66.7304 51.3873 64.1596 51.9667 61.5592 51.9993C61.211 52.0329 60.8607 51.9626 60.5522 51.7973C60.2841 51.577 60.0847 51.2842 59.9776 50.9535C58.5471 47.6349 54.3237 37.8126 52.8073 34.5622C50.9118 30.48 45.0417 33.457 45.7614 37.7442C46.4811 42.0315 49.5939 46.9783 51.5605 50.8317Z" fill="#EF5DA8"/>
<path d="M51.5605 50.8317C53.3375 54.3197 55.7069 58.0603 59.5393 58.8833C60.8987 59.1804 62.3085 59.0556 63.6857 58.91C67.4372 58.5139 71.1611 57.9414 74.8573 57.1927C75.8465 56.9937 77.0312 56.5985 77.2267 55.5884C77.3422 54.9377 76.6343 52.5163 76.193 52.0231C74.416 50.1216 71.9311 51.3041 69.3307 51.3457C66.7304 51.3873 64.1596 51.9667 61.5592 51.9993C61.211 52.0329 60.8608 51.9626 60.5522 51.7973C60.2841 51.577 60.0847 51.2842 59.9777 50.9535C58.5471 47.6349 54.1993 37.1768 52.8073 34.5622C50.7193 30.578 45.0417 33.457 45.7614 37.7442C46.4811 42.0315 49.5939 46.9783 51.5605 50.8317Z" fill="url(#paint13_linear_79_3096)"/>
<path d="M41.932 24.1012C42.1363 21.6887 42.9567 19.3743 43.9045 17.146C44.4774 15.6764 45.2391 14.2881 46.1702 13.0162C47.1566 11.7666 48.4038 10.7489 49.8242 10.0344C51.2445 9.31991 52.8036 8.92607 54.3919 8.88051C55.1154 8.82816 55.84 8.96535 56.4947 9.27863C57.3566 9.754 57.8719 10.681 58.2155 11.605C58.9381 13.5688 58.02 25.0846 54.1994 25.2926C49.046 25.5719 48.7261 27.7051 48.9572 28.7569C49.3511 30.5395 45.1662 31.0802 43.5313 30.2424C41.624 29.2322 41.7809 25.8749 41.932 24.1012Z" fill="url(#paint14_linear_79_3096)"/>
<path d="M58.4465 10.4967C57.4573 11.1504 53.8233 9.90252 52.7185 10.3244C50.8438 11.0256 49.9138 13.1707 49.6887 15.1643C49.1378 14.3829 48.3233 13.5034 47.4052 13.7708C46.6914 13.9818 46.3597 14.7958 46.188 15.5238C46.0007 16.1697 45.9702 16.8512 46.0991 17.5114C46.1695 17.8396 46.329 18.1418 46.5601 18.3846C46.7911 18.6274 47.0847 18.8013 47.4082 18.887C46.1613 18.8454 45.2876 20.0754 44.6982 21.1777C44.1088 22.2799 43.3506 23.5545 42.1067 23.6704C41.2478 23.7536 36.0589 14.0115 40.9398 11.1266C39.8469 10.4967 39.7551 8.87751 41.6625 7.19589C42.6102 6.364 44.8344 5.62717 46.0636 5.35087C61.4645 1.88067 59.6904 9.65295 58.4465 10.4967Z" fill="#25233A"/>
<path d="M85.9934 28.4983C85.0545 27.8715 84.1068 27.1435 82.9813 27.0128C82.6318 27.9041 84.3585 28.4983 84.1986 29.4342C83.7298 28.9695 83.1461 28.6383 82.5074 28.4746C82.5252 29.4699 83.0672 30.3701 83.5944 31.2169C84.2786 32.3161 84.9805 33.4333 85.9815 34.2503C86.8323 34.8894 87.7777 35.3907 88.7833 35.7358C90.6847 36.4697 92.909 36.8292 94.0493 34.7554C94.7778 33.4303 94.8904 31.6922 93.993 30.4444C93.4303 29.6689 91.0935 27.6962 90.1428 28.6944C89.4349 29.4461 90.7114 30.2156 89.3105 30.3018C88.4398 30.3731 86.7012 28.9737 85.9934 28.4983Z" fill="url(#paint15_linear_79_3096)"/>
<path d="M28.0089 59.6469H16.6774V47.008V43.1249H28.0089V59.6469Z" fill="white"/>
<path d="M28.0089 59.6469H16.6774V47.008V43.1249H28.0089V59.6469Z" fill="url(#paint16_linear_79_3096)"/>
<path d="M16.7633 57.891C16.6004 57.7751 13.0611 55.2497 12.5902 51.0843C12.4007 49.4146 12.7709 48.1133 13.686 47.2219C14.6012 46.3306 15.8125 46.1108 16.6685 46.0721L16.7633 57.891ZM14.3554 50.8823C14.5686 52.7838 15.7829 54.4475 16.7425 55.4666L16.6833 47.8637C16.033 47.8667 15.4043 48.0979 14.9063 48.5173C14.4117 48.9986 14.2221 49.7949 14.3465 50.8942L14.3554 50.8823Z" fill="white"/>
<path d="M16.7633 57.891C16.6004 57.7751 13.0611 55.2497 12.5902 51.0843C12.4007 49.4146 12.7709 48.1133 13.686 47.2219C14.6012 46.3306 15.8125 46.1108 16.6685 46.0721L16.7633 57.891ZM14.3554 50.8823C14.5686 52.7838 15.7829 54.4475 16.7425 55.4666L16.6833 47.8637C16.033 47.8667 15.4043 48.0979 14.9063 48.5173C14.4117 48.9986 14.2221 49.7949 14.3465 50.8942L14.3554 50.8823Z" fill="url(#paint17_linear_79_3096)"/>
<path d="M26.46 46.9337C26.6752 50.3801 26.7937 53.8305 26.8154 57.2849C26.8351 57.5047 26.7974 57.7259 26.7058 57.9266C26.5014 58.2831 26.0216 58.3485 25.6129 58.3752L19.3933 58.7645C19.2142 58.7864 19.0325 58.7754 18.8573 58.7318C18.333 58.5624 18.179 57.9058 18.1109 57.3591C17.797 54.8189 16.6715 49.878 19.0587 48.0122C19.8998 47.3556 21.428 46.8594 22.4084 46.5059C23.7856 46.0127 23.2791 46.6634 24.295 46.8951C25.0354 47.0615 25.7492 46.393 26.46 46.9337Z" fill="#FFD645"/>
<path d="M16.6567 44.554C16.9917 44.7889 17.3786 44.9387 17.7841 44.9905C18.1896 45.0423 18.6016 44.9944 18.9846 44.8511C19.5917 44.6104 20.0656 44.1351 20.6017 43.7666C21.1377 43.3982 21.8367 43.1398 22.432 43.3982C22.8496 43.5795 23.125 43.9746 23.4627 44.2896C23.9504 44.7111 24.5632 44.9591 25.206 44.9951C25.8487 45.0311 26.4853 44.853 27.0167 44.4886C27.2492 44.2617 27.5407 44.1052 27.8579 44.037C28.0442 44.0433 28.2287 44.0764 28.4058 44.1351C28.6607 44.1958 28.9266 44.1934 29.1804 44.1282C29.4342 44.063 29.6685 43.9369 29.8629 43.7607C30.0516 43.5783 30.1779 43.3406 30.2237 43.0817C30.2694 42.8229 30.2323 42.5561 30.1177 42.3197C29.9959 42.1155 29.8336 41.9385 29.6408 41.7998C29.1654 41.4283 28.6196 41.1576 28.0366 41.0044C27.4536 40.8512 26.8456 40.8185 26.2497 40.9085C25.9418 40.9926 25.6192 41.0078 25.3049 40.9531C23.9247 40.5579 24.2742 38.8169 22.3935 39.0605C21.0045 39.2417 20.11 39.827 18.6499 39.8003C16.1709 39.7617 14.1037 42.7535 16.6567 44.554Z" fill="white"/>
<path d="M16.6567 44.554C16.9917 44.7889 17.3786 44.9387 17.7841 44.9905C18.1896 45.0423 18.6016 44.9944 18.9846 44.8511C19.5917 44.6104 20.0656 44.1351 20.6017 43.7666C21.1377 43.3982 21.8367 43.1398 22.432 43.3982C22.8496 43.5795 23.125 43.9746 23.4627 44.2896C23.9504 44.7111 24.5632 44.9591 25.206 44.9951C25.8487 45.0311 26.4853 44.853 27.0167 44.4886C27.2492 44.2617 27.5407 44.1052 27.8579 44.037C28.0442 44.0433 28.2287 44.0764 28.4058 44.1351C28.6607 44.1958 28.9266 44.1934 29.1804 44.1282C29.4342 44.063 29.6685 43.9369 29.8629 43.7607C30.0516 43.5783 30.1779 43.3406 30.2237 43.0817C30.2694 42.8229 30.2323 42.5561 30.1177 42.3197C29.9959 42.1155 29.8336 41.9385 29.6408 41.7998C29.1654 41.4283 28.6196 41.1576 28.0366 41.0044C27.4536 40.8512 26.8456 40.8185 26.2497 40.9085C25.9418 40.9926 25.6192 41.0078 25.3049 40.9531C23.9247 40.5579 24.2742 38.8169 22.3935 39.0605C21.0045 39.2417 20.11 39.827 18.6499 39.8003C16.1709 39.7617 14.1037 42.7535 16.6567 44.554Z" fill="url(#paint18_linear_79_3096)"/>
<path d="M86.482 110.621C85.5254 113.949 81.225 114.186 79.6701 115.556C79.2229 115.948 78.752 116.427 78.7431 117.024C78.7253 118.126 80.1381 118.563 81.2339 118.667C83.2479 118.86 90.2138 118.622 90.2256 118.298C90.3027 115.779 91.0609 113.004 90.2434 110.621C90.2405 110.621 86.5146 110.499 86.482 110.621ZM105.606 111.679C106.275 115.075 102.564 117.267 101.803 119.196C101.587 119.754 101.385 120.384 101.649 120.931C102.138 121.917 103.595 121.656 104.611 121.246C106.491 120.488 112.575 117.086 112.433 116.789C111.352 114.516 110.756 111.7 108.944 109.956C108.947 109.95 105.582 111.566 105.606 111.679Z" fill="#EF5DA8"/>
<path d="M86.482 110.621C85.5254 113.949 81.225 114.187 79.6701 115.556C79.2229 115.948 78.752 116.427 78.7431 117.024C78.7253 118.126 80.1381 118.563 81.2339 118.667C83.2479 118.86 90.2138 118.622 90.2257 118.298C90.3027 115.779 91.0609 113.004 90.2434 110.621C90.2405 110.621 86.5146 110.499 86.482 110.621Z" fill="url(#paint19_linear_79_3096)"/>
<path d="M105.606 111.679C106.275 115.075 102.564 117.267 101.803 119.196C101.587 119.754 101.385 120.384 101.649 120.931C102.138 121.917 103.595 121.656 104.611 121.246C106.491 120.488 112.575 117.086 112.433 116.789C111.352 114.516 110.756 111.7 108.944 109.956C108.947 109.95 105.582 111.566 105.606 111.679Z" fill="url(#paint20_linear_79_3096)"/>
<path d="M68.534 124.778C68.4838 125.215 68.6041 125.654 68.8698 126.003C69.1355 126.352 69.5258 126.584 69.9586 126.65C72.0677 127.356 74.272 127.735 76.4951 127.773C76.9394 127.773 77.4251 127.758 77.7627 127.476C78.4647 126.882 77.9908 125.732 77.4666 124.96C76.3322 123.245 74.5819 122.378 73.4475 120.666C73.2224 120.325 72.8552 119.534 72.4761 119.413C69.9586 118.619 68.54 120.099 68.2231 120.779C67.7225 121.87 68.4659 123.673 68.534 124.778Z" fill="#EF5DA8"/>
<path d="M89.7784 9.37072C89.7784 9.37072 90.1931 15.4762 90.6107 17.3926C91.0283 19.3089 92.0619 23.5813 94.6297 23.3347C97.1975 23.0881 99.3389 22.3037 100.174 24.7281C101.009 27.1525 101.536 28.436 103.87 25.4263C106.204 22.4166 105.493 20.1527 105.493 20.1527C105.493 20.1527 103.121 2.26099 89.7784 9.37072Z" fill="url(#paint21_linear_79_3096)"/>
<path d="M97.858 27.9844C97.858 27.9844 101.285 25.8512 103.453 24.7905C105.621 23.7298 105.597 22.17 105.597 22.17C105.597 22.17 106.734 22.5028 106.782 22.6722C106.829 22.8415 115.682 24.5528 120.323 36.339C124.964 48.1252 132.608 67.3598 132.608 67.3598C132.608 67.3598 124.131 72.6394 124.117 72.6186C124.102 72.5978 108.485 72.0808 108.485 72.0808L97.852 47.6112C97.852 47.6112 95.5449 31.2318 97.858 27.9844Z" fill="#EF5DA8"/>
<path d="M97.858 27.9844C97.858 27.9844 101.285 25.8512 103.453 24.7905C105.621 23.7298 105.597 22.17 105.597 22.17C105.597 22.17 106.734 22.5028 106.782 22.6722C106.829 22.8415 115.682 24.5528 120.323 36.339C123.847 45.2581 129.951 57.2909 132.685 62.5883C133.174 63.5285 133.358 64.5982 133.212 65.6484C133.066 66.6987 132.597 67.677 131.87 68.4472C131.521 68.8339 131.122 69.1735 130.686 69.4573C128.598 70.7064 126.4 71.7606 124.119 72.6067C124.119 72.5859 108.488 72.0689 108.488 72.0689L97.855 47.5993C97.855 47.5993 95.5449 31.2318 97.858 27.9844Z" fill="url(#paint22_linear_79_3096)"/>
<path d="M104.273 38.2642C104.273 38.2642 106.177 48.8827 109.847 55.1279C113.517 61.373 116.84 71.2607 116.84 71.2607L108.49 72.0688L99.1877 50.0563L104.273 38.2642Z" fill="url(#paint23_linear_79_3096)"/>
<path d="M40.9398 27.607C40.9398 27.607 41.4551 26.1007 41.849 26.2671C42.2429 26.4335 43.7741 28.5816 49.7775 28.5816L48.4151 31.7101C48.4151 31.7101 44.5649 31.4605 42.7464 30.2008C41.1175 29.0718 40.9398 27.607 40.9398 27.607Z" fill="#EF5DA8"/>
<path d="M40.9398 27.607C40.9398 27.607 41.4551 26.1007 41.849 26.2671C42.2429 26.4335 43.7741 28.5816 49.7775 28.5816L48.4151 31.7101C48.4151 31.7101 44.5649 31.4605 42.7464 30.2008C41.1175 29.0718 40.9398 27.607 40.9398 27.607Z" fill="url(#paint24_linear_79_3096)"/>
<path d="M130.689 69.4573C130.689 69.4573 132.211 73.7534 132.202 76.8849C132.193 80.0164 130.144 84.1343 120.328 87.8154L107.561 93.7248C106.112 94.842 108.111 102.721 108.289 104.545L110.176 111.608C110.176 111.608 106.397 112.57 106.062 112.347C105.884 112.229 100.772 104.4 99.0574 97.3733C96.8272 88.2284 103.648 82.5002 109.299 77.5029L116.837 71.2637L130.689 69.4573Z" fill="#EF5DA8"/>
<path d="M130.689 69.4573C130.689 69.4573 132.211 73.7534 132.202 76.8849C132.193 80.0164 130.144 84.1343 120.328 87.8154L107.561 93.7248C106.112 94.842 108.111 102.721 108.289 104.545L110.176 111.608C110.176 111.608 106.397 112.57 106.062 112.347C105.884 112.229 100.772 104.4 99.0574 97.3733C96.8272 88.2284 103.648 82.5002 109.299 77.5029L117.044 71.5251L130.689 69.4573Z" fill="url(#paint25_linear_79_3096)"/>
<path d="M120.933 85.4862C120.933 83.929 119.675 82.6666 118.124 82.6666C116.572 82.6666 115.314 83.929 115.314 85.4862V130.275C115.314 131.832 116.572 133.094 118.124 133.094C119.675 133.094 120.933 131.832 120.933 130.275V85.4862Z" fill="#8C6239"/>
<path d="M134.103 85.4862C134.103 83.929 132.846 82.6666 131.294 82.6666C129.743 82.6666 128.485 83.929 128.485 85.4862V130.275C128.485 131.832 129.743 133.094 131.294 133.094C132.846 133.094 134.103 131.832 134.103 130.275V85.4862Z" fill="#8C6239"/>
<path d="M132.291 82.2714C133.476 82.307 134.862 82.4407 135.534 83.4331C136.268 84.5116 135.676 86.0862 134.625 86.8557C133.573 87.6252 132.211 87.8005 130.917 87.9521C128.18 88.2729 111.577 90.626 113.203 85.908C115.211 80.1322 128.281 82.1436 132.291 82.2714Z" fill="#8C6239"/>
<path d="M132.291 82.2714C133.476 82.307 134.862 82.4407 135.534 83.4331C136.268 84.5116 135.676 86.0862 134.625 86.8557C133.573 87.6252 132.211 87.8005 130.917 87.9521C128.18 88.2729 111.577 90.626 113.203 85.908C115.211 80.1322 128.281 82.1436 132.291 82.2714Z" fill="url(#paint26_linear_79_3096)"/>
<path d="M95.1628 75.9609C93.5546 76.8909 91.9405 77.8564 90.6195 79.1637C86.9056 82.8478 86.1355 88.4928 85.5669 93.7011C84.9508 99.3728 84.3526 105.247 86.1118 110.672C86.4702 111.777 87.2284 113.049 88.3834 112.945C89.2957 112.858 89.8643 111.937 90.2404 111.097C92.7312 105.452 91.4903 93.2079 96.8303 90.1507C104.827 85.5723 110.792 90.1774 128.455 83.5074C132.546 81.9624 133.49 74.0327 130.689 69.4573C130.689 69.4573 125.55 70.2268 119.757 70.9428C110.579 72.0659 102.431 71.7598 95.1628 75.9609Z" fill="#EF5DA8"/>
<path d="M128.455 83.5074C110.792 90.1774 104.83 85.5723 96.8303 90.1507C91.4992 93.2079 92.7312 105.458 90.2404 111.097C89.8702 111.937 89.2957 112.858 88.3834 112.945C87.2284 113.052 86.4702 111.777 86.1118 110.672C84.3526 105.247 84.9508 99.3818 85.5669 93.7011C86.1355 88.4928 86.9056 82.8478 90.6195 79.1637C91.9405 77.8565 93.5546 76.8909 95.1628 75.9609C101.652 72.2115 108.84 72.051 116.84 71.2607C117.799 71.1657 118.774 71.0617 119.757 70.9399C125.55 70.2268 130.689 69.4543 130.689 69.4543C133.499 74.0327 132.546 81.9625 128.455 83.5074Z" fill="url(#paint27_linear_79_3096)"/>
<path d="M96.62 29.0034C95.4353 30.2899 94.7601 31.9358 94.147 33.5669C92.8016 37.1549 91.7129 40.8344 90.8891 44.5777C90.5929 45.9265 88.6145 48.8976 87.8681 50.0563C81.1924 60.4223 87.2758 59.6053 87.7645 59.635C90.7262 59.8162 93.5813 58.1495 95.5627 55.9331C97.5441 53.7166 98.8206 50.9417 100.044 48.2083L102.372 43.0832C103.627 40.3142 104.913 37.4382 104.836 34.387C104.726 30.4473 100.402 24.8528 96.62 29.0034Z" fill="#EF5DA8"/>
<path d="M96.62 29.0034C95.4353 30.2899 94.7601 31.9358 94.147 33.5669C92.8016 37.1549 91.7129 40.8344 90.8891 44.5777C90.5929 45.9265 88.6145 48.8976 87.8681 50.0563C81.1924 60.4223 87.2758 59.6053 87.7645 59.635C90.7262 59.8162 93.5813 58.1495 95.5627 55.9331C97.5441 53.7166 98.8206 50.9417 100.044 48.2083L102.372 43.0832C103.627 40.3142 104.913 37.4382 104.836 34.387C104.726 30.4473 100.402 24.8528 96.62 29.0034Z" fill="url(#paint28_linear_79_3096)"/>
<path d="M116.84 71.2607C116.783 72.4729 116.449 75.8867 114.518 76.7097C112.148 77.7139 94.6149 79.8055 90.4863 88.8167C86.3576 97.8279 88.3834 112.945 88.3834 112.945C87.2284 113.052 86.4702 111.777 86.1118 110.672C84.3526 105.247 84.9508 99.3818 85.5669 93.7011C86.1355 88.4929 86.9055 82.8479 90.6195 79.1638C91.9405 77.8565 93.5546 76.8909 95.1628 75.961C101.652 72.2115 108.84 72.051 116.84 71.2607Z" fill="url(#paint29_linear_79_3096)"/>
<path d="M93.6138 1.08741C93.6138 1.08741 86.1088 0.921027 85.1078 0L86.1088 1.92524L84.0356 2.42735L86.7515 5.18746L84.7613 6.10849C84.7613 6.10849 86.4554 8.3041 88.5819 8.87751C90.7084 9.45092 95.305 8.78541 96.8421 10.363C98.3792 11.9407 98.5865 15.7109 98.5865 15.7109C98.5865 15.7109 99.4751 12.6567 100.42 13.9521C101.365 15.2474 100.047 18.3463 99.4632 18.0105C99.4632 18.0105 102.632 19.9774 103.047 21.148C103.462 22.3186 105.609 19.7664 105.609 19.7664C105.609 19.7664 105.967 16.9647 106.05 14.9147C106.133 12.8647 108.212 5.92428 104.3 3.41374C99.9519 0.650661 96.7947 0.778416 93.6138 1.08741Z" fill="#25233A"/>
<path d="M18.3804 48.5262C18.349 48.5913 18.3345 48.6632 18.3381 48.7354C18.3418 48.8075 18.3634 48.8776 18.4011 48.9392C18.5285 49.0759 18.7565 49.0016 18.9224 48.9184C19.8909 48.4341 20.8801 47.9171 21.9581 47.8221C22.7341 47.7508 23.5101 47.9023 24.286 47.935C24.6414 47.9498 24.9969 47.935 25.3523 47.935C25.5999 47.9383 25.8463 47.8991 26.0808 47.8191C26.2138 47.781 26.3322 47.7037 26.4208 47.5973C26.5095 47.4909 26.5642 47.3602 26.5779 47.2222C26.5916 47.0842 26.5637 46.9453 26.4978 46.8234C26.4319 46.7015 26.331 46.6023 26.2082 46.5386C25.9543 46.3827 25.6709 46.2815 25.3759 46.2415C24.9554 46.1612 24.5348 46.0929 24.1113 46.0365C23.699 45.9723 23.2813 45.9494 22.8644 45.9681C21.7804 46.0394 20.7586 46.592 19.6717 46.598C19.3489 46.598 18.9342 46.598 18.8187 46.8951C18.7476 47.0823 18.8661 47.1922 18.8809 47.3616C18.8957 47.5309 18.9016 47.5071 18.7921 47.6943C18.6263 47.9565 18.4884 48.2353 18.3804 48.5262Z" fill="#FFD645"/>
<path d="M18.3804 48.5262C18.349 48.5913 18.3345 48.6632 18.3381 48.7354C18.3418 48.8075 18.3634 48.8776 18.4011 48.9392C18.5285 49.0759 18.7565 49.0016 18.9224 48.9184C19.8909 48.4341 20.8801 47.9171 21.9581 47.8221C22.7341 47.7508 23.5101 47.9023 24.286 47.935C24.6414 47.9498 24.9969 47.935 25.3523 47.935C25.5999 47.9383 25.8463 47.8991 26.0808 47.8191C26.2138 47.781 26.3322 47.7037 26.4208 47.5973C26.5095 47.4909 26.5642 47.3602 26.5779 47.2222C26.5916 47.0842 26.5637 46.9453 26.4978 46.8234C26.4319 46.7015 26.331 46.6023 26.2082 46.5386C25.9543 46.3827 25.6709 46.2815 25.3759 46.2415C24.9554 46.1612 24.5348 46.0929 24.1113 46.0365C23.699 45.9723 23.2813 45.9494 22.8644 45.9681C21.7804 46.0394 20.7586 46.592 19.6717 46.598C19.3489 46.598 18.9342 46.598 18.8187 46.8951C18.7476 47.0823 18.8661 47.1922 18.8809 47.3616C18.8957 47.5309 18.9016 47.5071 18.7921 47.6943C18.6263 47.9565 18.4884 48.2353 18.3804 48.5262Z" fill="url(#paint30_linear_79_3096)"/>
<path d="M106.788 22.6781L105.603 21.249C105.603 21.249 102.41 25.1857 100.017 25.4085L99.5729 27.1911C101.159 27.0821 102.669 26.4668 103.882 25.4352C106.012 23.6734 106.788 22.6781 106.788 22.6781Z" fill="#EF5DA8"/>
<path d="M106.788 22.6781L105.603 21.249C105.603 21.249 102.41 25.1857 100.017 25.4085L99.5729 27.1911C101.159 27.0821 102.669 26.4668 103.882 25.4352C106.012 23.6734 106.788 22.6781 106.788 22.6781Z" fill="url(#paint31_linear_79_3096)"/>
<path d="M99.4425 15.8446C99.4943 15.6645 99.5329 15.4808 99.558 15.295C99.5936 15.1435 99.6884 14.9801 99.8542 14.9652C99.9197 14.9667 99.9829 14.99 100.034 15.0314C100.085 15.0728 100.121 15.13 100.136 15.194C100.167 15.3219 100.167 15.4553 100.136 15.5832C100.094 16.0549 99.8709 16.4918 99.5136 16.8013C99.4817 16.8287 99.4443 16.849 99.404 16.8607C99.3636 16.8725 99.3212 16.8756 99.2796 16.8697C99.1671 16.8399 99.1138 16.7181 99.0753 16.6112C99.019 16.4567 98.942 16.2933 99.0753 16.1744C99.2086 16.0556 99.3626 16.0526 99.4425 15.8446Z" fill="url(#paint32_linear_79_3096)"/>
<path d="M48.1664 16.2636C48.1101 15.9427 48.2997 15.5862 48.1338 15.3069C48.0694 15.2146 47.9768 15.1455 47.8701 15.1102C47.7633 15.0749 47.6481 15.0751 47.5415 15.1108C47.3311 15.1873 47.1596 15.3444 47.0646 15.5476C46.7685 16.0943 46.8958 16.7895 47.1772 17.351C47.2244 17.4745 47.2963 17.587 47.3885 17.6815C47.4807 17.776 47.5912 17.8506 47.7132 17.9007C47.8482 17.9294 47.9885 17.9192 48.1179 17.8714C48.2473 17.8236 48.3607 17.74 48.4448 17.6303C48.6094 17.4071 48.7236 17.1506 48.7795 16.8786C48.8417 16.6409 48.6491 16.7182 48.5099 16.6736C48.4215 16.6422 48.343 16.5876 48.2826 16.5155C48.2222 16.4434 48.1821 16.3565 48.1664 16.2636Z" fill="url(#paint33_linear_79_3096)"/>
</g>
<defs>
<linearGradient id="paint0_linear_79_3096" x1="76.6462" y1="-162.9" x2="94.3706" y2="325.573" gradientUnits="userSpaceOnUse">
<stop stop-opacity="0"/>
<stop offset="0.85" stop-opacity="0.7"/>
<stop offset="0.97"/>
</linearGradient>
<linearGradient id="paint1_linear_79_3096" x1="28.7109" y1="116.459" x2="47.503" y2="116.459" gradientUnits="userSpaceOnUse">
<stop stop-opacity="0"/>
<stop offset="0.97"/>
</linearGradient>
<linearGradient id="paint2_linear_79_3096" x1="7432" y1="2069.47" x2="8624.17" y2="2069.47" gradientUnits="userSpaceOnUse">
<stop stop-opacity="0"/>
<stop offset="0.97"/>
</linearGradient>
<linearGradient id="paint3_linear_79_3096" x1="7432" y1="2362.38" x2="8624.17" y2="2362.38" gradientUnits="userSpaceOnUse">
<stop stop-opacity="0"/>
<stop offset="0.97"/>
</linearGradient>
<linearGradient id="paint4_linear_79_3096" x1="1850.41" y1="2129.99" x2="3042.77" y2="2129.99" gradientUnits="userSpaceOnUse">
<stop stop-opacity="0"/>
<stop offset="0.97"/>
</linearGradient>
<linearGradient id="paint5_linear_79_3096" x1="34.7646" y1="89.197" x2="38.6733" y2="83.3524" gradientUnits="userSpaceOnUse">
<stop stop-opacity="0"/>
<stop offset="0.61" stop-opacity="0.61"/>
<stop offset="0.97"/>
</linearGradient>
<linearGradient id="paint6_linear_79_3096" x1="7260.78" y1="13822.7" x2="4662.2" y2="13822.7" gradientUnits="userSpaceOnUse">
<stop stop-opacity="0"/>
<stop offset="0.97"/>
</linearGradient>
<linearGradient id="paint7_linear_79_3096" x1="11275.1" y1="13602.4" x2="6842.99" y2="16073.4" gradientUnits="userSpaceOnUse">
<stop stop-opacity="0"/>
<stop offset="0.97"/>
</linearGradient>
<linearGradient id="paint8_linear_79_3096" x1="63.1289" y1="38.4841" x2="72.0644" y2="38.4841" gradientUnits="userSpaceOnUse">
<stop stop-color="#ECC4D7"/>
<stop offset="0.42" stop-color="#EFD4D1"/>
<stop offset="1" stop-color="#F2EAC9"/>
</linearGradient>
<linearGradient id="paint9_linear_79_3096" x1="4226.72" y1="2411.17" x2="2964.09" y2="3873.6" gradientUnits="userSpaceOnUse">
<stop stop-opacity="0"/>
<stop offset="0.97"/>
</linearGradient>
<linearGradient id="paint10_linear_79_3096" x1="3075.35" y1="1572.53" x2="3551.21" y2="1572.53" gradientUnits="userSpaceOnUse">
<stop stop-color="#ECC4D7"/>
<stop offset="0.42" stop-color="#EFD4D1"/>
<stop offset="1" stop-color="#F2EAC9"/>
</linearGradient>
<linearGradient id="paint11_linear_79_3096" x1="33462.7" y1="791.793" x2="33462.7" y2="1048.61" gradientUnits="userSpaceOnUse">
<stop stop-opacity="0"/>
<stop offset="0.97"/>
</linearGradient>
<linearGradient id="paint12_linear_79_3096" x1="1841.77" y1="9936.11" x2="320.594" y2="9918.78" gradientUnits="userSpaceOnUse">
<stop stop-opacity="0"/>
<stop offset="0.97"/>
</linearGradient>
<linearGradient id="paint13_linear_79_3096" x1="6416.55" y1="4587.09" x2="4432.52" y2="5673.47" gradientUnits="userSpaceOnUse">
<stop stop-opacity="0"/>
<stop offset="0.97"/>
</linearGradient>
<linearGradient id="paint14_linear_79_3096" x1="2386.46" y1="1839.85" x2="3316.33" y2="1839.85" gradientUnits="userSpaceOnUse">
<stop stop-color="#ECC4D7"/>
<stop offset="0.42" stop-color="#EFD4D1"/>
<stop offset="1" stop-color="#F2EAC9"/>
</linearGradient>
<linearGradient id="paint15_linear_79_3096" x1="3459.9" y1="1182.77" x2="3956.12" y2="1182.77" gradientUnits="userSpaceOnUse">
<stop stop-color="#ECC4D7"/>
<stop offset="0.42" stop-color="#EFD4D1"/>
<stop offset="1" stop-color="#F2EAC9"/>
</linearGradient>
<linearGradient id="paint16_linear_79_3096" x1="880.252" y1="2900.61" x2="1609.78" y2="2899.13" gradientUnits="userSpaceOnUse">
<stop stop-opacity="0"/>
<stop offset="0.97"/>
</linearGradient>
<linearGradient id="paint17_linear_79_3096" x1="232.596" y1="2320.85" x2="350.029" y2="2322.54" gradientUnits="userSpaceOnUse">
<stop stop-opacity="0"/>
<stop offset="0.97"/>
</linearGradient>
<linearGradient id="paint18_linear_79_3096" x1="1111.09" y1="966.605" x2="1203.46" y2="1464.9" gradientUnits="userSpaceOnUse">
<stop stop-opacity="0"/>
<stop offset="0.97"/>
</linearGradient>
<linearGradient id="paint19_linear_79_3096" x1="3451.46" y1="3499.16" x2="3536" y2="3325.96" gradientUnits="userSpaceOnUse">
<stop stop-opacity="0"/>
<stop offset="0.97"/>
</linearGradient>
<linearGradient id="paint20_linear_79_3096" x1="4015.75" y1="5085.95" x2="4179.4" y2="4437.68" gradientUnits="userSpaceOnUse">
<stop stop-opacity="0"/>
<stop offset="0.97"/>
</linearGradient>
<linearGradient id="paint21_linear_79_3096" x1="4884.3" y1="1495.57" x2="5729.07" y2="1495.57" gradientUnits="userSpaceOnUse">
<stop stop-color="#ECC4D7"/>
<stop offset="0.42" stop-color="#EFD4D1"/>
<stop offset="1" stop-color="#F2EAC9"/>
</linearGradient>
<linearGradient id="paint22_linear_79_3096" x1="89.5918" y1="57.7633" x2="121.687" y2="44.6842" gradientUnits="userSpaceOnUse">
<stop stop-color="white" stop-opacity="0"/>
<stop offset="0.97" stop-color="white"/>
</linearGradient>
<linearGradient id="paint23_linear_79_3096" x1="7454.34" y1="4963.6" x2="4748.85" y2="6796.39" gradientUnits="userSpaceOnUse">
<stop stop-color="white" stop-opacity="0"/>
<stop offset="0.97" stop-color="white"/>
</linearGradient>
<linearGradient id="paint24_linear_79_3096" x1="1507.04" y1="640.359" x2="970.36" y2="809.933" gradientUnits="userSpaceOnUse">
<stop stop-opacity="0"/>
<stop offset="0.97"/>
</linearGradient>
<linearGradient id="paint25_linear_79_3096" x1="14108.4" y1="15706.1" x2="12729.9" y2="13379.1" gradientUnits="userSpaceOnUse">
<stop stop-opacity="0"/>
<stop offset="0.97"/>
</linearGradient>
<linearGradient id="paint26_linear_79_3096" x1="8807.41" y1="2213.12" x2="10557.9" y2="2213.12" gradientUnits="userSpaceOnUse">
<stop stop-opacity="0"/>
<stop offset="0.97"/>
</linearGradient>
<linearGradient id="paint27_linear_79_3096" x1="16096.3" y1="12444.2" x2="18599.7" y2="16077.2" gradientUnits="userSpaceOnUse">
<stop stop-opacity="0"/>
<stop offset="0.97"/>
</linearGradient>
<linearGradient id="paint28_linear_79_3096" x1="7225.86" y1="5787.88" x2="6127.61" y2="5533.53" gradientUnits="userSpaceOnUse">
<stop stop-color="white" stop-opacity="0"/>
<stop offset="0.97" stop-color="white"/>
</linearGradient>
<linearGradient id="paint29_linear_79_3096" x1="11015" y1="13625.6" x2="7529.62" y2="10765.4" gradientUnits="userSpaceOnUse">
<stop stop-opacity="0"/>
<stop offset="0.97"/>
</linearGradient>
<linearGradient id="paint30_linear_79_3096" x1="18.3389" y1="47.4953" x2="26.5784" y2="47.4953" gradientUnits="userSpaceOnUse">
<stop stop-opacity="0"/>
<stop offset="0.03" stop-color="white" stop-opacity="0.03"/>
<stop offset="0.97" stop-color="white"/>
</linearGradient>
<linearGradient id="paint31_linear_79_3096" x1="2724.5" y1="595.91" x2="2507.26" y2="633.827" gradientUnits="userSpaceOnUse">
<stop stop-color="white" stop-opacity="0"/>
<stop offset="0.97" stop-color="white"/>
</linearGradient>
<linearGradient id="paint32_linear_79_3096" x1="488.02" y1="150.847" x2="507.601" y2="154.223" gradientUnits="userSpaceOnUse">
<stop stop-color="#ECC4D7"/>
<stop offset="0.42" stop-color="#EFD4D1"/>
<stop offset="1" stop-color="#F2EAC9"/>
</linearGradient>
<linearGradient id="paint33_linear_79_3096" x1="353.685" y1="222.386" x2="319.731" y2="223.556" gradientUnits="userSpaceOnUse">
<stop stop-color="#ECC4D7"/>
<stop offset="0.42" stop-color="#EFD4D1"/>
<stop offset="1" stop-color="#F2EAC9"/>
</linearGradient>
<clipPath id="clip0_79_3096">
<rect width="151" height="136" fill="white"/>
</clipPath>
</defs>
</svg>
