<svg width="117" height="117" viewBox="0 0 117 117" fill="none" xmlns="http://www.w3.org/2000/svg">
<path fill-rule="evenodd" clip-rule="evenodd" d="M94.7822 49.3813C94.7188 53.6396 94.6628 57.3909 96.8053 61.8296C96.8053 61.8296 103.133 67.5236 102.299 72.0915C101.463 76.6593 93.2222 77.9171 93.2222 77.9171C93.2222 96.3763 75.5966 95.2014 66.7997 93.4659C66.6248 93.4311 66.4501 93.3954 66.2756 93.3586C63.6431 92.8126 61.9222 92.2496 61.9222 92.2496V95.7181C61.9222 95.7181 61.7394 96.2983 61.1739 97.1173C61.0228 97.3366 60.8473 97.5682 60.6377 97.812C58.9875 99.7522 55.4019 102.338 48.0114 102.338C42.4442 102.78 32.9136 99.1355 30.3883 93.9973V78.2778C21.4841 71.6235 14.625 62.6608 14.625 51.0412C14.625 41.3814 18.6566 32.1189 25.8302 25.2915C33.0037 18.4616 42.7342 14.625 52.8816 14.625C60.6042 14.6119 68.2442 16.2135 75.3114 19.3269C80.7959 21.507 85.6411 25.0368 89.3977 29.5888C92.755 34.2707 94.6322 39.8513 94.7871 45.6105C94.8188 46.9267 94.7992 48.1747 94.7822 49.3813ZM66.9094 53.3325C66.5291 53.759 66.3293 53.9808 65.1373 53.9808C63.2597 53.9825 61.4232 53.4306 59.8577 52.394C58.7632 53.5201 57.4251 54.3928 55.9382 54.9461C55.7481 55.0363 55.5726 55.1338 55.4117 55.2386C54.5708 55.7724 54.0711 56.4622 53.5592 57.2763L53.2959 57.7029C53.1692 57.9101 53.0376 58.127 52.8962 58.3488C51.965 59.8025 51.4702 61.4926 51.4702 63.219V72.9153H41.4375C41.184 70.8386 40.7111 68.8423 39.5606 67.0751C38.4024 65.2986 36.8606 63.8043 35.0488 62.7022C33.4777 62.0485 32.1136 60.9802 31.1025 59.6115C30.1058 58.2589 29.5065 56.6549 29.3719 54.9802C27.8491 53.421 26.9451 51.3613 26.8286 49.1849C26.712 47.0085 27.3906 44.864 28.7381 43.151C28.5062 42.3639 28.3945 41.5462 28.4066 40.7257C28.4058 38.7586 29.0506 36.8456 30.2421 35.2803L35.0488 31.9678C35.7954 30.3438 36.9979 28.9719 38.5101 28.019C39.5894 27.3376 40.7938 26.8786 42.0529 26.6689C43.3119 26.4592 44.6002 26.503 45.8421 26.7978C47.3999 25.3921 49.3785 24.5403 51.4702 24.375L61.6809 25.0672C63.9174 25.5991 65.8841 26.9264 67.2141 28.8015H67.8795L73.7782 30.81C75.442 32.0997 76.6081 33.9256 77.0786 35.9775C79.0883 36.8197 80.7486 38.3252 81.783 40.2431C82.8067 42.1468 83.1236 44.3356 82.6824 46.4392C82.2437 48.5452 81.0737 50.4367 79.3699 51.8041L73.3249 53.9443C71.429 53.9675 69.5687 53.428 67.9794 52.394C67.4091 52.7718 67.1263 53.0863 66.9069 53.3325H66.9094ZM82.875 62.1562C82.875 63.1259 82.4898 64.0559 81.8041 64.7416C81.1184 65.4272 80.1884 65.8125 79.2188 65.8125C78.2491 65.8125 77.3191 65.4272 76.6334 64.7416C75.9477 64.0559 75.5625 63.1259 75.5625 62.1562C75.5625 61.1865 75.9477 60.2565 76.6334 59.5709C77.3191 58.8852 78.2491 58.5 79.2188 58.5C80.1884 58.5 81.1184 58.8852 81.8041 59.5709C82.4898 60.2565 82.875 61.1865 82.875 62.1562ZM51.1875 78V82.875H41.4375V78H51.1875ZM41.4375 87.75V92.625H51.1875V87.75H41.4375Z" fill="#A6649C"/>
</svg>
