<svg width="127" height="26" viewBox="0 0 127 26" fill="none" xmlns="http://www.w3.org/2000/svg">
<path d="M32.666 12.718C32.666 11.494 32.948 10.396 33.512 9.424C34.088 8.452 34.862 7.696 35.834 7.156C36.818 6.604 37.892 6.328 39.056 6.328C40.388 6.328 41.57 6.658 42.602 7.318C43.646 7.966 44.402 8.89 44.87 10.09H42.404C42.08 9.43 41.63 8.938 41.054 8.614C40.478 8.29 39.812 8.128 39.056 8.128C38.228 8.128 37.49 8.314 36.842 8.686C36.194 9.058 35.684 9.592 35.312 10.288C34.952 10.984 34.772 11.794 34.772 12.718C34.772 13.642 34.952 14.452 35.312 15.148C35.684 15.844 36.194 16.384 36.842 16.768C37.49 17.14 38.228 17.326 39.056 17.326C39.812 17.326 40.478 17.164 41.054 16.84C41.63 16.516 42.08 16.024 42.404 15.364H44.87C44.402 16.564 43.646 17.488 42.602 18.136C41.57 18.784 40.388 19.108 39.056 19.108C37.88 19.108 36.806 18.838 35.834 18.298C34.862 17.746 34.088 16.984 33.512 16.012C32.948 15.04 32.666 13.942 32.666 12.718ZM52.2939 19.162C51.3579 19.162 50.5119 18.952 49.7559 18.532C48.9999 18.1 48.4059 17.5 47.9739 16.732C47.5419 15.952 47.3259 15.052 47.3259 14.032C47.3259 13.024 47.5479 12.13 47.9919 11.35C48.4359 10.57 49.0419 9.97 49.8099 9.55C50.5779 9.13 51.4359 8.92 52.3839 8.92C53.3319 8.92 54.1899 9.13 54.9579 9.55C55.7259 9.97 56.3319 10.57 56.7759 11.35C57.2199 12.13 57.4419 13.024 57.4419 14.032C57.4419 15.04 57.2139 15.934 56.7579 16.714C56.3019 17.494 55.6779 18.1 54.8859 18.532C54.1059 18.952 53.2419 19.162 52.2939 19.162ZM52.2939 17.38C52.8219 17.38 53.3139 17.254 53.7699 17.002C54.2379 16.75 54.6159 16.372 54.9039 15.868C55.1919 15.364 55.3359 14.752 55.3359 14.032C55.3359 13.312 55.1979 12.706 54.9219 12.214C54.6459 11.71 54.2799 11.332 53.8239 11.08C53.3679 10.828 52.8759 10.702 52.3479 10.702C51.8199 10.702 51.3279 10.828 50.8719 11.08C50.4279 11.332 50.0739 11.71 49.8099 12.214C49.5459 12.706 49.4139 13.312 49.4139 14.032C49.4139 15.1 49.6839 15.928 50.2239 16.516C50.7759 17.092 51.4659 17.38 52.2939 17.38ZM72.1964 8.92C72.9764 8.92 73.6724 9.082 74.2844 9.406C74.9084 9.73 75.3944 10.21 75.7424 10.846C76.1024 11.482 76.2824 12.25 76.2824 13.15V19H74.2484V13.456C74.2484 12.568 74.0264 11.89 73.5824 11.422C73.1384 10.942 72.5324 10.702 71.7644 10.702C70.9964 10.702 70.3844 10.942 69.9284 11.422C69.4844 11.89 69.2624 12.568 69.2624 13.456V19H67.2284V13.456C67.2284 12.568 67.0064 11.89 66.5624 11.422C66.1184 10.942 65.5124 10.702 64.7444 10.702C63.9764 10.702 63.3644 10.942 62.9084 11.422C62.4644 11.89 62.2424 12.568 62.2424 13.456V19H60.1904V9.082H62.2424V10.216C62.5784 9.808 63.0044 9.49 63.5204 9.262C64.0364 9.034 64.5884 8.92 65.1764 8.92C65.9684 8.92 66.6764 9.088 67.3004 9.424C67.9244 9.76 68.4044 10.246 68.7404 10.882C69.0404 10.282 69.5084 9.808 70.1444 9.46C70.7804 9.1 71.4644 8.92 72.1964 8.92ZM81.6655 10.54C82.0135 10.084 82.4875 9.7 83.0875 9.388C83.6875 9.076 84.3655 8.92 85.1215 8.92C85.9855 8.92 86.7715 9.136 87.4795 9.568C88.1995 9.988 88.7635 10.582 89.1715 11.35C89.5795 12.118 89.7835 13 89.7835 13.996C89.7835 14.992 89.5795 15.886 89.1715 16.678C88.7635 17.458 88.1995 18.07 87.4795 18.514C86.7715 18.946 85.9855 19.162 85.1215 19.162C84.3655 19.162 83.6935 19.012 83.1055 18.712C82.5175 18.4 82.0375 18.016 81.6655 17.56V23.716H79.6135V9.082H81.6655V10.54ZM87.6955 13.996C87.6955 13.312 87.5515 12.724 87.2635 12.232C86.9875 11.728 86.6155 11.35 86.1475 11.098C85.6915 10.834 85.1995 10.702 84.6715 10.702C84.1555 10.702 83.6635 10.834 83.1955 11.098C82.7395 11.362 82.3675 11.746 82.0795 12.25C81.8035 12.754 81.6655 13.348 81.6655 14.032C81.6655 14.716 81.8035 15.316 82.0795 15.832C82.3675 16.336 82.7395 16.72 83.1955 16.984C83.6635 17.248 84.1555 17.38 84.6715 17.38C85.1995 17.38 85.6915 17.248 86.1475 16.984C86.6155 16.708 86.9875 16.312 87.2635 15.796C87.5515 15.28 87.6955 14.68 87.6955 13.996ZM91.8487 13.996C91.8487 13 92.0527 12.118 92.4607 11.35C92.8807 10.582 93.4447 9.988 94.1527 9.568C94.8727 9.136 95.6647 8.92 96.5287 8.92C97.3087 8.92 97.9867 9.076 98.5627 9.388C99.1507 9.688 99.6187 10.066 99.9667 10.522V9.082H102.037V19H99.9667V17.524C99.6187 17.992 99.1447 18.382 98.5447 18.694C97.9447 19.006 97.2607 19.162 96.4927 19.162C95.6407 19.162 94.8607 18.946 94.1527 18.514C93.4447 18.07 92.8807 17.458 92.4607 16.678C92.0527 15.886 91.8487 14.992 91.8487 13.996ZM99.9667 14.032C99.9667 13.348 99.8227 12.754 99.5347 12.25C99.2587 11.746 98.8927 11.362 98.4367 11.098C97.9807 10.834 97.4887 10.702 96.9607 10.702C96.4327 10.702 95.9407 10.834 95.4847 11.098C95.0287 11.35 94.6567 11.728 94.3687 12.232C94.0927 12.724 93.9547 13.312 93.9547 13.996C93.9547 14.68 94.0927 15.28 94.3687 15.796C94.6567 16.312 95.0287 16.708 95.4847 16.984C95.9527 17.248 96.4447 17.38 96.9607 17.38C97.4887 17.38 97.9807 17.248 98.4367 16.984C98.8927 16.72 99.2587 16.336 99.5347 15.832C99.8227 15.316 99.9667 14.716 99.9667 14.032ZM109.052 19.162C108.272 19.162 107.57 19.024 106.946 18.748C106.334 18.46 105.848 18.076 105.488 17.596C105.128 17.104 104.936 16.558 104.912 15.958H107.036C107.072 16.378 107.27 16.732 107.63 17.02C108.002 17.296 108.464 17.434 109.016 17.434C109.592 17.434 110.036 17.326 110.348 17.11C110.672 16.882 110.834 16.594 110.834 16.246C110.834 15.874 110.654 15.598 110.294 15.418C109.946 15.238 109.388 15.04 108.62 14.824C107.876 14.62 107.27 14.422 106.802 14.23C106.334 14.038 105.926 13.744 105.578 13.348C105.242 12.952 105.074 12.43 105.074 11.782C105.074 11.254 105.23 10.774 105.542 10.342C105.854 9.898 106.298 9.55 106.874 9.298C107.462 9.046 108.134 8.92 108.89 8.92C110.018 8.92 110.924 9.208 111.608 9.784C112.304 10.348 112.676 11.122 112.724 12.106H110.672C110.636 11.662 110.456 11.308 110.132 11.044C109.808 10.78 109.37 10.648 108.818 10.648C108.278 10.648 107.864 10.75 107.576 10.954C107.288 11.158 107.144 11.428 107.144 11.764C107.144 12.028 107.24 12.25 107.432 12.43C107.624 12.61 107.858 12.754 108.134 12.862C108.41 12.958 108.818 13.084 109.358 13.24C110.078 13.432 110.666 13.63 111.122 13.834C111.59 14.026 111.992 14.314 112.328 14.698C112.664 15.082 112.838 15.592 112.85 16.228C112.85 16.792 112.694 17.296 112.382 17.74C112.07 18.184 111.626 18.532 111.05 18.784C110.486 19.036 109.82 19.162 109.052 19.162ZM119.387 19.162C118.607 19.162 117.905 19.024 117.281 18.748C116.669 18.46 116.183 18.076 115.823 17.596C115.463 17.104 115.271 16.558 115.247 15.958H117.371C117.407 16.378 117.605 16.732 117.965 17.02C118.337 17.296 118.799 17.434 119.351 17.434C119.927 17.434 120.371 17.326 120.683 17.11C121.007 16.882 121.169 16.594 121.169 16.246C121.169 15.874 120.989 15.598 120.629 15.418C120.281 15.238 119.723 15.04 118.955 14.824C118.211 14.62 117.605 14.422 117.137 14.23C116.669 14.038 116.261 13.744 115.913 13.348C115.577 12.952 115.409 12.43 115.409 11.782C115.409 11.254 115.565 10.774 115.877 10.342C116.189 9.898 116.633 9.55 117.209 9.298C117.797 9.046 118.469 8.92 119.225 8.92C120.353 8.92 121.259 9.208 121.943 9.784C122.639 10.348 123.011 11.122 123.059 12.106H121.007C120.971 11.662 120.791 11.308 120.467 11.044C120.143 10.78 119.705 10.648 119.153 10.648C118.613 10.648 118.199 10.75 117.911 10.954C117.623 11.158 117.479 11.428 117.479 11.764C117.479 12.028 117.575 12.25 117.767 12.43C117.959 12.61 118.193 12.754 118.469 12.862C118.745 12.958 119.153 13.084 119.693 13.24C120.413 13.432 121.001 13.63 121.457 13.834C121.925 14.026 122.327 14.314 122.663 14.698C122.999 15.082 123.173 15.592 123.185 16.228C123.185 16.792 123.029 17.296 122.717 17.74C122.405 18.184 121.961 18.532 121.385 18.784C120.821 19.036 120.155 19.162 119.387 19.162Z" fill="#EF5DA8"/>
<circle cx="12" cy="13" r="12" fill="#EF5DA8"/>
<path d="M17.8188 6.53292L10.6482 9.4725C10.1561 9.66689 9.70921 9.96026 9.33514 10.3344C8.96106 10.7086 8.66777 11.1556 8.47344 11.6478L5.53463 18.8204C5.48636 18.9432 5.48863 19.0801 5.54094 19.2013C5.59324 19.3225 5.69134 19.418 5.81382 19.4671C5.93234 19.511 6.06265 19.511 6.18117 19.4671L13.3518 16.5275C13.8439 16.3331 14.2908 16.0397 14.6649 15.6656C15.0389 15.2914 15.3322 14.8444 15.5266 14.3522L18.4654 7.17963C18.5136 7.0568 18.5114 6.91986 18.4591 6.7987C18.4068 6.67754 18.3087 6.582 18.1862 6.53292C18.0677 6.48903 17.9374 6.48903 17.8188 6.53292V6.53292ZM12.0294 14.4404C11.7388 14.4404 11.4547 14.3542 11.213 14.1927C10.9714 14.0312 10.7831 13.8016 10.6718 13.5331C10.5606 13.2645 10.5315 12.969 10.5882 12.6839C10.6449 12.3988 10.7849 12.1369 10.9904 11.9313C11.1959 11.7258 11.4577 11.5858 11.7427 11.5291C12.0278 11.4723 12.3232 11.5014 12.5917 11.6127C12.8602 11.7239 13.0897 11.9123 13.2512 12.154C13.4126 12.3957 13.4988 12.6799 13.4988 12.9706C13.4988 13.3604 13.344 13.7343 13.0684 14.0099C12.7928 14.2855 12.4191 14.4404 12.0294 14.4404Z" fill="white"/>
</svg>
