<svg width="48" height="48" viewBox="0 0 48 48" fill="none" xmlns="http://www.w3.org/2000/svg">
<circle cx="24" cy="24" r="24" fill="#EF5DA8"/>
<path d="M35.6377 11.0658L21.2963 16.945C20.3122 17.3338 19.4184 17.9205 18.6703 18.6689C17.9221 19.4172 17.3355 20.3113 16.9469 21.2956L11.0693 35.6407C10.9727 35.8864 10.9773 36.1603 11.0819 36.4026C11.1865 36.6449 11.3827 36.836 11.6276 36.9342C11.8647 37.0219 12.1253 37.0219 12.3623 36.9342L26.7037 31.055C27.6878 30.6662 28.5816 30.0795 29.3297 29.3311C30.0779 28.5828 30.6645 27.6887 31.0531 26.7044L36.9307 12.3593C37.0273 12.1136 37.0227 11.8397 36.9181 11.5974C36.8135 11.3551 36.6173 11.164 36.3724 11.0658C36.1353 10.9781 35.8747 10.9781 35.6377 11.0658ZM24.0588 26.8808C23.4775 26.8808 22.9093 26.7084 22.4261 26.3854C21.9428 26.0624 21.5661 25.6033 21.3437 25.0661C21.1212 24.529 21.063 23.9379 21.1764 23.3677C21.2898 22.7975 21.5697 22.2737 21.9807 21.8626C22.3917 21.4515 22.9154 21.1715 23.4854 21.0581C24.0555 20.9447 24.6464 21.0029 25.1834 21.2254C25.7204 21.4479 26.1794 21.8247 26.5023 22.3081C26.8252 22.7915 26.9976 23.3598 26.9976 23.9412C26.9976 24.7208 26.688 25.4685 26.1368 26.0198C25.5857 26.5711 24.8382 26.8808 24.0588 26.8808Z" fill="white"/>
</svg>
