<svg width="24" height="24" viewBox="0 0 24 24" fill="none" xmlns="http://www.w3.org/2000/svg">
<circle cx="12" cy="12" r="12" fill="#FFE3FB"/>
<path d="M12.3023 6.00824C12.0354 5.99446 11.7672 5.9977 11.4987 6.01996V6.02164C10.7827 6.08078 10.0678 6.27031 9.3877 6.59918C6.66745 7.91482 5.34873 11.057 6.31578 13.9197C7.2828 16.7823 10.2371 18.4821 13.1979 17.8787C16.1587 17.2753 18.2128 14.5554 17.9824 11.5426C17.9791 11.4857 17.9646 11.4301 17.9396 11.3789C17.9146 11.3277 17.8797 11.282 17.8369 11.2444C17.7941 11.2069 17.7442 11.1783 17.6902 11.1602C17.6362 11.1421 17.5791 11.135 17.5223 11.1392C17.4655 11.1434 17.4101 11.1589 17.3594 11.1848C17.3086 11.2106 17.2635 11.2464 17.2267 11.2898C17.1899 11.3333 17.1621 11.3836 17.145 11.438C17.1279 11.4923 17.1217 11.5495 17.1269 11.6062C17.3249 14.1948 15.5711 16.5183 13.0271 17.0367C10.4831 17.5552 7.95859 16.1032 7.1277 13.6435C6.2968 11.1838 7.42205 8.49966 9.75935 7.36923C11.8565 6.35504 14.328 6.88543 15.8346 8.57787H14.9992C14.9424 8.57707 14.886 8.58756 14.8333 8.60874C14.7806 8.62991 14.7327 8.66135 14.6922 8.70122C14.6518 8.7411 14.6196 8.78861 14.5977 8.84101C14.5758 8.8934 14.5645 8.94963 14.5645 9.00642C14.5645 9.06321 14.5758 9.11944 14.5977 9.17184C14.6196 9.22423 14.6518 9.27174 14.6922 9.31162C14.7327 9.35149 14.7806 9.38293 14.8333 9.40411C14.886 9.42528 14.9424 9.43577 14.9992 9.43497H16.7134C16.8271 9.43496 16.9361 9.38981 17.0165 9.30944C17.0968 9.22907 17.142 9.12008 17.142 9.00642V7.29222C17.1429 7.23482 17.1323 7.17781 17.1107 7.1246C17.0891 7.07139 17.0571 7.02305 17.0165 6.98245C16.9759 6.94186 16.9276 6.90983 16.8744 6.88828C16.8212 6.86672 16.7641 6.85608 16.7067 6.85697C16.6505 6.85785 16.5949 6.86981 16.5432 6.89216C16.4916 6.9145 16.4448 6.94681 16.4057 6.98723C16.3665 7.02764 16.3357 7.07538 16.3149 7.12771C16.2942 7.18004 16.284 7.23594 16.2849 7.29222V7.82121C15.2174 6.72634 13.791 6.08517 12.3023 6.00824Z" fill="#824A7A"/>
</svg>
